<?xml version="1.0" encoding="utf-8" standalone="no"?>
<!DOCTYPE svg PUBLIC "-//W3C//DTD SVG 1.1//EN"
  "http://www.w3.org/Graphics/SVG/1.1/DTD/svg11.dtd">
<svg xmlns:xlink="http://www.w3.org/1999/xlink" width="648pt" height="432pt" viewBox="0 0 648 432" xmlns="http://www.w3.org/2000/svg" version="1.1">
 <metadata>
  <rdf:RDF xmlns:dc="http://purl.org/dc/elements/1.1/" xmlns:cc="http://creativecommons.org/ns#" xmlns:rdf="http://www.w3.org/1999/02/22-rdf-syntax-ns#">
   <cc:Work>
    <dc:type rdf:resource="http://purl.org/dc/dcmitype/StillImage"/>
    <dc:date>2026-09-23T11:10:15.010180</dc:date>
    <dc:format>image/svg+xml</dc:format>
    <dc:creator>
     <cc:Agent>
      <dc:title>Matplotlib v3.10.9, https://matplotlib.org/</dc:title>
     </cc:Agent>
    </dc:creator>
   </cc:Work>
  </rdf:RDF>
 </metadata>
 <defs>
  <style type="text/css">*{stroke-linejoin: round; stroke-linecap: butt}</style>
 </defs>
 <g id="figure_1">
  <g id="patch_1">
   <path d="M 0 432 
L 648 432 
L 648 0 
L 0 0 
z
" style="fill: #ffffff"/>
  </g>
  <g id="axes_1">
   <g id="patch_2">
    <path d="M 55.12375 385.036875 
L 637.2 385.036875 
L 637.2 10.8 
L 55.12375 10.8 
z
" style="fill: #eaf1fb"/>
   </g>
   <g id="matplotlib.axis_1">
    <g id="xtick_1">
     <g id="line2d_1">
      <path d="M 81.581761 385.036875 
L 81.581761 10.8 
" clip-path="url(#pb1f0b31982)" style="fill: none; stroke: #b0b0b0; stroke-width: 0.8; stroke-linecap: square"/>
     </g>
     <g id="line2d_2">
      <defs>
       <path id="m87731d1286" d="M 0 0 
L 0 3.5 
" style="stroke: #000000; stroke-width: 0.8"/>
      </defs>
      <g>
       <use xlink:href="#m87731d1286" x="81.581761" y="385.036875" style="stroke: #000000; stroke-width: 0.8"/>
      </g>
     </g>
     <g id="text_1">
      <!-- 0 -->
      <g transform="translate(78.400511 399.635312) scale(0.1 -0.1)">
       <defs>
        <path id="DejaVuSans-30" d="M 2034 4250 
Q 1547 4250 1301 3770 
Q 1056 3291 1056 2328 
Q 1056 1369 1301 889 
Q 1547 409 2034 409 
Q 2525 409 2770 889 
Q 3016 1369 3016 2328 
Q 3016 3291 2770 3770 
Q 2525 4250 2034 4250 
z
M 2034 4750 
Q 2819 4750 3233 4129 
Q 3647 3509 3647 2328 
Q 3647 1150 3233 529 
Q 2819 -91 2034 -91 
Q 1250 -91 836 529 
Q 422 1150 422 2328 
Q 422 3509 836 4129 
Q 1250 4750 2034 4750 
z
" transform="scale(0.015625)"/>
       </defs>
       <use xlink:href="#DejaVuSans-30"/>
      </g>
     </g>
    </g>
    <g id="xtick_2">
     <g id="line2d_3">
      <path d="M 188.482817 385.036875 
L 188.482817 10.8 
" clip-path="url(#pb1f0b31982)" style="fill: none; stroke: #b0b0b0; stroke-width: 0.8; stroke-linecap: square"/>
     </g>
     <g id="line2d_4">
      <g>
       <use xlink:href="#m87731d1286" x="188.482817" y="385.036875" style="stroke: #000000; stroke-width: 0.8"/>
      </g>
     </g>
     <g id="text_2">
      <!-- 20 -->
      <g transform="translate(182.120317 399.635312) scale(0.1 -0.1)">
       <defs>
        <path id="DejaVuSans-32" d="M 1228 531 
L 3431 531 
L 3431 0 
L 469 0 
L 469 531 
Q 828 903 1448 1529 
Q 2069 2156 2228 2338 
Q 2531 2678 2651 2914 
Q 2772 3150 2772 3378 
Q 2772 3750 2511 3984 
Q 2250 4219 1831 4219 
Q 1534 4219 1204 4116 
Q 875 4013 500 3803 
L 500 4441 
Q 881 4594 1212 4672 
Q 1544 4750 1819 4750 
Q 2544 4750 2975 4387 
Q 3406 4025 3406 3419 
Q 3406 3131 3298 2873 
Q 3191 2616 2906 2266 
Q 2828 2175 2409 1742 
Q 1991 1309 1228 531 
z
" transform="scale(0.015625)"/>
       </defs>
       <use xlink:href="#DejaVuSans-32"/>
       <use xlink:href="#DejaVuSans-30" transform="translate(63.623047 0)"/>
      </g>
     </g>
    </g>
    <g id="xtick_3">
     <g id="line2d_5">
      <path d="M 295.383873 385.036875 
L 295.383873 10.8 
" clip-path="url(#pb1f0b31982)" style="fill: none; stroke: #b0b0b0; stroke-width: 0.8; stroke-linecap: square"/>
     </g>
     <g id="line2d_6">
      <g>
       <use xlink:href="#m87731d1286" x="295.383873" y="385.036875" style="stroke: #000000; stroke-width: 0.8"/>
      </g>
     </g>
     <g id="text_3">
      <!-- 40 -->
      <g transform="translate(289.021373 399.635312) scale(0.1 -0.1)">
       <defs>
        <path id="DejaVuSans-34" d="M 2419 4116 
L 825 1625 
L 2419 1625 
L 2419 4116 
z
M 2253 4666 
L 3047 4666 
L 3047 1625 
L 3713 1625 
L 3713 1100 
L 3047 1100 
L 3047 0 
L 2419 0 
L 2419 1100 
L 313 1100 
L 313 1709 
L 2253 4666 
z
" transform="scale(0.015625)"/>
       </defs>
       <use xlink:href="#DejaVuSans-34"/>
       <use xlink:href="#DejaVuSans-30" transform="translate(63.623047 0)"/>
      </g>
     </g>
    </g>
    <g id="xtick_4">
     <g id="line2d_7">
      <path d="M 402.284929 385.036875 
L 402.284929 10.8 
" clip-path="url(#pb1f0b31982)" style="fill: none; stroke: #b0b0b0; stroke-width: 0.8; stroke-linecap: square"/>
     </g>
     <g id="line2d_8">
      <g>
       <use xlink:href="#m87731d1286" x="402.284929" y="385.036875" style="stroke: #000000; stroke-width: 0.8"/>
      </g>
     </g>
     <g id="text_4">
      <!-- 60 -->
      <g transform="translate(395.922429 399.635312) scale(0.1 -0.1)">
       <defs>
        <path id="DejaVuSans-36" d="M 2113 2584 
Q 1688 2584 1439 2293 
Q 1191 2003 1191 1497 
Q 1191 994 1439 701 
Q 1688 409 2113 409 
Q 2538 409 2786 701 
Q 3034 994 3034 1497 
Q 3034 2003 2786 2293 
Q 2538 2584 2113 2584 
z
M 3366 4563 
L 3366 3988 
Q 3128 4100 2886 4159 
Q 2644 4219 2406 4219 
Q 1781 4219 1451 3797 
Q 1122 3375 1075 2522 
Q 1259 2794 1537 2939 
Q 1816 3084 2150 3084 
Q 2853 3084 3261 2657 
Q 3669 2231 3669 1497 
Q 3669 778 3244 343 
Q 2819 -91 2113 -91 
Q 1303 -91 875 529 
Q 447 1150 447 2328 
Q 447 3434 972 4092 
Q 1497 4750 2381 4750 
Q 2619 4750 2861 4703 
Q 3103 4656 3366 4563 
z
" transform="scale(0.015625)"/>
       </defs>
       <use xlink:href="#DejaVuSans-36"/>
       <use xlink:href="#DejaVuSans-30" transform="translate(63.623047 0)"/>
      </g>
     </g>
    </g>
    <g id="xtick_5">
     <g id="line2d_9">
      <path d="M 509.185985 385.036875 
L 509.185985 10.8 
" clip-path="url(#pb1f0b31982)" style="fill: none; stroke: #b0b0b0; stroke-width: 0.8; stroke-linecap: square"/>
     </g>
     <g id="line2d_10">
      <g>
       <use xlink:href="#m87731d1286" x="509.185985" y="385.036875" style="stroke: #000000; stroke-width: 0.8"/>
      </g>
     </g>
     <g id="text_5">
      <!-- 80 -->
      <g transform="translate(502.823485 399.635312) scale(0.1 -0.1)">
       <defs>
        <path id="DejaVuSans-38" d="M 2034 2216 
Q 1584 2216 1326 1975 
Q 1069 1734 1069 1313 
Q 1069 891 1326 650 
Q 1584 409 2034 409 
Q 2484 409 2743 651 
Q 3003 894 3003 1313 
Q 3003 1734 2745 1975 
Q 2488 2216 2034 2216 
z
M 1403 2484 
Q 997 2584 770 2862 
Q 544 3141 544 3541 
Q 544 4100 942 4425 
Q 1341 4750 2034 4750 
Q 2731 4750 3128 4425 
Q 3525 4100 3525 3541 
Q 3525 3141 3298 2862 
Q 3072 2584 2669 2484 
Q 3125 2378 3379 2068 
Q 3634 1759 3634 1313 
Q 3634 634 3220 271 
Q 2806 -91 2034 -91 
Q 1263 -91 848 271 
Q 434 634 434 1313 
Q 434 1759 690 2068 
Q 947 2378 1403 2484 
z
M 1172 3481 
Q 1172 3119 1398 2916 
Q 1625 2713 2034 2713 
Q 2441 2713 2670 2916 
Q 2900 3119 2900 3481 
Q 2900 3844 2670 4047 
Q 2441 4250 2034 4250 
Q 1625 4250 1398 4047 
Q 1172 3844 1172 3481 
z
" transform="scale(0.015625)"/>
       </defs>
       <use xlink:href="#DejaVuSans-38"/>
       <use xlink:href="#DejaVuSans-30" transform="translate(63.623047 0)"/>
      </g>
     </g>
    </g>
    <g id="xtick_6">
     <g id="line2d_11">
      <path d="M 616.087041 385.036875 
L 616.087041 10.8 
" clip-path="url(#pb1f0b31982)" style="fill: none; stroke: #b0b0b0; stroke-width: 0.8; stroke-linecap: square"/>
     </g>
     <g id="line2d_12">
      <g>
       <use xlink:href="#m87731d1286" x="616.087041" y="385.036875" style="stroke: #000000; stroke-width: 0.8"/>
      </g>
     </g>
     <g id="text_6">
      <!-- 100 -->
      <g transform="translate(606.543291 399.635312) scale(0.1 -0.1)">
       <defs>
        <path id="DejaVuSans-31" d="M 794 531 
L 1825 531 
L 1825 4091 
L 703 3866 
L 703 4441 
L 1819 4666 
L 2450 4666 
L 2450 531 
L 3481 531 
L 3481 0 
L 794 0 
L 794 531 
z
" transform="scale(0.015625)"/>
       </defs>
       <use xlink:href="#DejaVuSans-31"/>
       <use xlink:href="#DejaVuSans-30" transform="translate(63.623047 0)"/>
       <use xlink:href="#DejaVuSans-30" transform="translate(127.246094 0)"/>
      </g>
     </g>
    </g>
    <g id="text_7">
     <!-- # communication rounds -->
     <g transform="translate(244.936875 417.8725) scale(0.16 -0.16)">
      <defs>
       <path id="DejaVuSans-Oblique-23" d="M 2803 4594 
L 2478 3297 
L 3391 3297 
L 3719 4594 
L 4219 4594 
L 3897 3297 
L 4947 3297 
L 4825 2816 
L 3775 2816 
L 3519 1772 
L 4581 1772 
L 4469 1294 
L 3397 1294 
L 3072 0 
L 2572 0 
L 2894 1294 
L 1978 1294 
L 1656 0 
L 1153 0 
L 1478 1294 
L 447 1294 
L 563 1772 
L 1594 1772 
L 1856 2816 
L 806 2816 
L 928 3297 
L 1978 3297 
L 2297 4594 
L 2803 4594 
z
M 3272 2816 
L 2363 2816 
L 2100 1772 
L 3016 1772 
L 3272 2816 
z
" transform="scale(0.015625)"/>
       <path id="DejaVuSans-Oblique-20" transform="scale(0.015625)"/>
       <path id="DejaVuSans-Oblique-63" d="M 3431 3366 
L 3316 2797 
Q 3109 2947 2876 3022 
Q 2644 3097 2394 3097 
Q 2119 3097 1870 3000 
Q 1622 2903 1453 2725 
Q 1184 2453 1037 2087 
Q 891 1722 891 1331 
Q 891 859 1127 628 
Q 1363 397 1844 397 
Q 2081 397 2348 469 
Q 2616 541 2906 684 
L 2797 116 
Q 2547 13 2283 -39 
Q 2019 -91 1741 -91 
Q 1044 -91 669 257 
Q 294 606 294 1253 
Q 294 1797 489 2255 
Q 684 2713 1069 3078 
Q 1331 3328 1684 3456 
Q 2038 3584 2456 3584 
Q 2700 3584 2940 3529 
Q 3181 3475 3431 3366 
z
" transform="scale(0.015625)"/>
       <path id="DejaVuSans-Oblique-6f" d="M 1625 -91 
Q 1009 -91 651 289 
Q 294 669 294 1325 
Q 294 1706 417 2101 
Q 541 2497 738 2766 
Q 1047 3184 1428 3384 
Q 1809 3584 2291 3584 
Q 2888 3584 3255 3212 
Q 3622 2841 3622 2241 
Q 3622 1825 3500 1412 
Q 3378 1000 3181 728 
Q 2875 309 2494 109 
Q 2113 -91 1625 -91 
z
M 891 1344 
Q 891 869 1089 633 
Q 1288 397 1691 397 
Q 2269 397 2648 901 
Q 3028 1406 3028 2181 
Q 3028 2634 2825 2865 
Q 2622 3097 2228 3097 
Q 1903 3097 1650 2945 
Q 1397 2794 1197 2484 
Q 1050 2253 970 1956 
Q 891 1659 891 1344 
z
" transform="scale(0.015625)"/>
       <path id="DejaVuSans-Oblique-6d" d="M 5747 2113 
L 5338 0 
L 4763 0 
L 5166 2094 
Q 5191 2228 5203 2325 
Q 5216 2422 5216 2491 
Q 5216 2772 5059 2928 
Q 4903 3084 4622 3084 
Q 4203 3084 3875 2770 
Q 3547 2456 3450 1953 
L 3066 0 
L 2491 0 
L 2900 2094 
Q 2925 2209 2937 2307 
Q 2950 2406 2950 2484 
Q 2950 2769 2794 2926 
Q 2638 3084 2363 3084 
Q 1938 3084 1609 2770 
Q 1281 2456 1184 1953 
L 800 0 
L 225 0 
L 909 3500 
L 1484 3500 
L 1375 2956 
Q 1609 3263 1923 3423 
Q 2238 3584 2597 3584 
Q 2978 3584 3223 3384 
Q 3469 3184 3519 2828 
Q 3781 3197 4126 3390 
Q 4472 3584 4856 3584 
Q 5306 3584 5551 3325 
Q 5797 3066 5797 2591 
Q 5797 2488 5784 2364 
Q 5772 2241 5747 2113 
z
" transform="scale(0.015625)"/>
       <path id="DejaVuSans-Oblique-75" d="M 428 1388 
L 838 3500 
L 1416 3500 
L 1006 1409 
Q 975 1256 961 1147 
Q 947 1038 947 966 
Q 947 700 1109 554 
Q 1272 409 1569 409 
Q 2031 409 2368 721 
Q 2706 1034 2809 1563 
L 3194 3500 
L 3769 3500 
L 3091 0 
L 2516 0 
L 2631 550 
Q 2388 244 2052 76 
Q 1716 -91 1338 -91 
Q 878 -91 622 161 
Q 366 413 366 863 
Q 366 956 381 1097 
Q 397 1238 428 1388 
z
" transform="scale(0.015625)"/>
       <path id="DejaVuSans-Oblique-6e" d="M 3566 2113 
L 3156 0 
L 2578 0 
L 2988 2091 
Q 3016 2238 3031 2350 
Q 3047 2463 3047 2528 
Q 3047 2791 2881 2937 
Q 2716 3084 2419 3084 
Q 1956 3084 1622 2776 
Q 1288 2469 1184 1941 
L 800 0 
L 225 0 
L 903 3500 
L 1478 3500 
L 1363 2950 
Q 1603 3253 1940 3418 
Q 2278 3584 2650 3584 
Q 3113 3584 3367 3334 
Q 3622 3084 3622 2631 
Q 3622 2519 3608 2391 
Q 3594 2263 3566 2113 
z
" transform="scale(0.015625)"/>
       <path id="DejaVuSans-Oblique-69" d="M 1172 4863 
L 1747 4863 
L 1606 4134 
L 1031 4134 
L 1172 4863 
z
M 909 3500 
L 1484 3500 
L 800 0 
L 225 0 
L 909 3500 
z
" transform="scale(0.015625)"/>
       <path id="DejaVuSans-Oblique-61" d="M 3438 1997 
L 3047 0 
L 2472 0 
L 2578 531 
Q 2325 219 2001 64 
Q 1678 -91 1281 -91 
Q 834 -91 548 182 
Q 263 456 263 884 
Q 263 1497 752 1853 
Q 1241 2209 2100 2209 
L 2900 2209 
L 2931 2363 
Q 2938 2388 2941 2417 
Q 2944 2447 2944 2509 
Q 2944 2788 2717 2942 
Q 2491 3097 2081 3097 
Q 1800 3097 1504 3025 
Q 1209 2953 897 2809 
L 997 3341 
Q 1322 3463 1633 3523 
Q 1944 3584 2234 3584 
Q 2853 3584 3176 3315 
Q 3500 3047 3500 2534 
Q 3500 2431 3484 2292 
Q 3469 2153 3438 1997 
z
M 2816 1759 
L 2241 1759 
Q 1534 1759 1195 1570 
Q 856 1381 856 984 
Q 856 709 1029 553 
Q 1203 397 1509 397 
Q 1978 397 2328 733 
Q 2678 1069 2791 1631 
L 2816 1759 
z
" transform="scale(0.015625)"/>
       <path id="DejaVuSans-Oblique-74" d="M 2706 3500 
L 2619 3053 
L 1472 3053 
L 1100 1153 
Q 1081 1047 1072 975 
Q 1063 903 1063 863 
Q 1063 663 1183 572 
Q 1303 481 1569 481 
L 2150 481 
L 2053 0 
L 1503 0 
Q 991 0 739 200 
Q 488 400 488 806 
Q 488 878 497 964 
Q 506 1050 525 1153 
L 897 3053 
L 409 3053 
L 500 3500 
L 978 3500 
L 1172 4494 
L 1747 4494 
L 1556 3500 
L 2706 3500 
z
" transform="scale(0.015625)"/>
       <path id="DejaVuSans-Oblique-72" d="M 2853 2969 
Q 2766 3016 2653 3041 
Q 2541 3066 2413 3066 
Q 1953 3066 1609 2717 
Q 1266 2369 1153 1784 
L 800 0 
L 225 0 
L 909 3500 
L 1484 3500 
L 1375 2956 
Q 1603 3259 1920 3421 
Q 2238 3584 2597 3584 
Q 2691 3584 2781 3573 
Q 2872 3563 2963 3538 
L 2853 2969 
z
" transform="scale(0.015625)"/>
       <path id="DejaVuSans-Oblique-64" d="M 2675 525 
Q 2444 222 2128 65 
Q 1813 -91 1428 -91 
Q 903 -91 598 267 
Q 294 625 294 1247 
Q 294 1766 478 2236 
Q 663 2706 1013 3078 
Q 1244 3325 1534 3454 
Q 1825 3584 2144 3584 
Q 2481 3584 2739 3421 
Q 2997 3259 3138 2956 
L 3513 4863 
L 4091 4863 
L 3144 0 
L 2566 0 
L 2675 525 
z
M 891 1350 
Q 891 897 1095 644 
Q 1300 391 1663 391 
Q 1931 391 2161 520 
Q 2391 650 2566 903 
Q 2750 1166 2856 1509 
Q 2963 1853 2963 2188 
Q 2963 2622 2758 2865 
Q 2553 3109 2194 3109 
Q 1922 3109 1687 2981 
Q 1453 2853 1288 2613 
Q 1106 2353 998 2009 
Q 891 1666 891 1350 
z
" transform="scale(0.015625)"/>
       <path id="DejaVuSans-Oblique-73" d="M 3200 3397 
L 3091 2853 
Q 2863 2978 2609 3040 
Q 2356 3103 2088 3103 
Q 1634 3103 1373 2948 
Q 1113 2794 1113 2528 
Q 1113 2219 1719 2053 
Q 1766 2041 1788 2034 
L 1972 1978 
Q 2547 1819 2739 1644 
Q 2931 1469 2931 1166 
Q 2931 609 2489 259 
Q 2047 -91 1331 -91 
Q 1053 -91 747 -37 
Q 441 16 72 128 
L 184 722 
Q 500 559 806 475 
Q 1113 391 1394 391 
Q 1816 391 2080 572 
Q 2344 753 2344 1031 
Q 2344 1331 1650 1516 
L 1591 1531 
L 1394 1581 
Q 956 1697 753 1886 
Q 550 2075 550 2369 
Q 550 2928 970 3256 
Q 1391 3584 2113 3584 
Q 2397 3584 2667 3537 
Q 2938 3491 3200 3397 
z
" transform="scale(0.015625)"/>
      </defs>
      <use xlink:href="#DejaVuSans-Oblique-23"/>
      <use xlink:href="#DejaVuSans-Oblique-20" transform="translate(83.789062 0)"/>
      <use xlink:href="#DejaVuSans-Oblique-63" transform="translate(115.576172 0)"/>
      <use xlink:href="#DejaVuSans-Oblique-6f" transform="translate(170.556641 0)"/>
      <use xlink:href="#DejaVuSans-Oblique-6d" transform="translate(231.738281 0)"/>
      <use xlink:href="#DejaVuSans-Oblique-6d" transform="translate(329.150391 0)"/>
      <use xlink:href="#DejaVuSans-Oblique-75" transform="translate(426.5625 0)"/>
      <use xlink:href="#DejaVuSans-Oblique-6e" transform="translate(489.941406 0)"/>
      <use xlink:href="#DejaVuSans-Oblique-69" transform="translate(553.320312 0)"/>
      <use xlink:href="#DejaVuSans-Oblique-63" transform="translate(581.103516 0)"/>
      <use xlink:href="#DejaVuSans-Oblique-61" transform="translate(636.083984 0)"/>
      <use xlink:href="#DejaVuSans-Oblique-74" transform="translate(697.363281 0)"/>
      <use xlink:href="#DejaVuSans-Oblique-69" transform="translate(736.572266 0)"/>
      <use xlink:href="#DejaVuSans-Oblique-6f" transform="translate(764.355469 0)"/>
      <use xlink:href="#DejaVuSans-Oblique-6e" transform="translate(825.537109 0)"/>
      <use xlink:href="#DejaVuSans-Oblique-20" transform="translate(888.916016 0)"/>
      <use xlink:href="#DejaVuSans-Oblique-72" transform="translate(920.703125 0)"/>
      <use xlink:href="#DejaVuSans-Oblique-6f" transform="translate(961.816406 0)"/>
      <use xlink:href="#DejaVuSans-Oblique-75" transform="translate(1022.998047 0)"/>
      <use xlink:href="#DejaVuSans-Oblique-6e" transform="translate(1086.376953 0)"/>
      <use xlink:href="#DejaVuSans-Oblique-64" transform="translate(1149.755859 0)"/>
      <use xlink:href="#DejaVuSans-Oblique-73" transform="translate(1213.232422 0)"/>
     </g>
    </g>
   </g>
   <g id="matplotlib.axis_2">
    <g id="ytick_1">
     <g id="line2d_13">
      <path d="M 55.12375 357.076176 
L 637.2 357.076176 
" clip-path="url(#pb1f0b31982)" style="fill: none; stroke: #b0b0b0; stroke-width: 0.8; stroke-linecap: square"/>
     </g>
     <g id="line2d_14">
      <defs>
       <path id="mdc48dc6fb9" d="M 0 0 
L -3.5 0 
" style="stroke: #000000; stroke-width: 0.8"/>
      </defs>
      <g>
       <use xlink:href="#mdc48dc6fb9" x="55.12375" y="357.076176" style="stroke: #000000; stroke-width: 0.8"/>
      </g>
     </g>
     <g id="text_8">
      <!-- 0.1 -->
      <g transform="translate(32.220625 360.875395) scale(0.1 -0.1)">
       <defs>
        <path id="DejaVuSans-2e" d="M 684 794 
L 1344 794 
L 1344 0 
L 684 0 
L 684 794 
z
" transform="scale(0.015625)"/>
       </defs>
       <use xlink:href="#DejaVuSans-30"/>
       <use xlink:href="#DejaVuSans-2e" transform="translate(63.623047 0)"/>
       <use xlink:href="#DejaVuSans-31" transform="translate(95.410156 0)"/>
      </g>
     </g>
    </g>
    <g id="ytick_2">
     <g id="line2d_15">
      <path d="M 55.12375 275.360267 
L 637.2 275.360267 
" clip-path="url(#pb1f0b31982)" style="fill: none; stroke: #b0b0b0; stroke-width: 0.8; stroke-linecap: square"/>
     </g>
     <g id="line2d_16">
      <g>
       <use xlink:href="#mdc48dc6fb9" x="55.12375" y="275.360267" style="stroke: #000000; stroke-width: 0.8"/>
      </g>
     </g>
     <g id="text_9">
      <!-- 0.2 -->
      <g transform="translate(32.220625 279.159486) scale(0.1 -0.1)">
       <use xlink:href="#DejaVuSans-30"/>
       <use xlink:href="#DejaVuSans-2e" transform="translate(63.623047 0)"/>
       <use xlink:href="#DejaVuSans-32" transform="translate(95.410156 0)"/>
      </g>
     </g>
    </g>
    <g id="ytick_3">
     <g id="line2d_17">
      <path d="M 55.12375 193.644358 
L 637.2 193.644358 
" clip-path="url(#pb1f0b31982)" style="fill: none; stroke: #b0b0b0; stroke-width: 0.8; stroke-linecap: square"/>
     </g>
     <g id="line2d_18">
      <g>
       <use xlink:href="#mdc48dc6fb9" x="55.12375" y="193.644358" style="stroke: #000000; stroke-width: 0.8"/>
      </g>
     </g>
     <g id="text_10">
      <!-- 0.3 -->
      <g transform="translate(32.220625 197.443576) scale(0.1 -0.1)">
       <defs>
        <path id="DejaVuSans-33" d="M 2597 2516 
Q 3050 2419 3304 2112 
Q 3559 1806 3559 1356 
Q 3559 666 3084 287 
Q 2609 -91 1734 -91 
Q 1441 -91 1130 -33 
Q 819 25 488 141 
L 488 750 
Q 750 597 1062 519 
Q 1375 441 1716 441 
Q 2309 441 2620 675 
Q 2931 909 2931 1356 
Q 2931 1769 2642 2001 
Q 2353 2234 1838 2234 
L 1294 2234 
L 1294 2753 
L 1863 2753 
Q 2328 2753 2575 2939 
Q 2822 3125 2822 3475 
Q 2822 3834 2567 4026 
Q 2313 4219 1838 4219 
Q 1578 4219 1281 4162 
Q 984 4106 628 3988 
L 628 4550 
Q 988 4650 1302 4700 
Q 1616 4750 1894 4750 
Q 2613 4750 3031 4423 
Q 3450 4097 3450 3541 
Q 3450 3153 3228 2886 
Q 3006 2619 2597 2516 
z
" transform="scale(0.015625)"/>
       </defs>
       <use xlink:href="#DejaVuSans-30"/>
       <use xlink:href="#DejaVuSans-2e" transform="translate(63.623047 0)"/>
       <use xlink:href="#DejaVuSans-33" transform="translate(95.410156 0)"/>
      </g>
     </g>
    </g>
    <g id="ytick_4">
     <g id="line2d_19">
      <path d="M 55.12375 111.928448 
L 637.2 111.928448 
" clip-path="url(#pb1f0b31982)" style="fill: none; stroke: #b0b0b0; stroke-width: 0.8; stroke-linecap: square"/>
     </g>
     <g id="line2d_20">
      <g>
       <use xlink:href="#mdc48dc6fb9" x="55.12375" y="111.928448" style="stroke: #000000; stroke-width: 0.8"/>
      </g>
     </g>
     <g id="text_11">
      <!-- 0.4 -->
      <g transform="translate(32.220625 115.727667) scale(0.1 -0.1)">
       <use xlink:href="#DejaVuSans-30"/>
       <use xlink:href="#DejaVuSans-2e" transform="translate(63.623047 0)"/>
       <use xlink:href="#DejaVuSans-34" transform="translate(95.410156 0)"/>
      </g>
     </g>
    </g>
    <g id="ytick_5">
     <g id="line2d_21">
      <path d="M 55.12375 30.212539 
L 637.2 30.212539 
" clip-path="url(#pb1f0b31982)" style="fill: none; stroke: #b0b0b0; stroke-width: 0.8; stroke-linecap: square"/>
     </g>
     <g id="line2d_22">
      <g>
       <use xlink:href="#mdc48dc6fb9" x="55.12375" y="30.212539" style="stroke: #000000; stroke-width: 0.8"/>
      </g>
     </g>
     <g id="text_12">
      <!-- 0.5 -->
      <g transform="translate(32.220625 34.011758) scale(0.1 -0.1)">
       <defs>
        <path id="DejaVuSans-35" d="M 691 4666 
L 3169 4666 
L 3169 4134 
L 1269 4134 
L 1269 2991 
Q 1406 3038 1543 3061 
Q 1681 3084 1819 3084 
Q 2600 3084 3056 2656 
Q 3513 2228 3513 1497 
Q 3513 744 3044 326 
Q 2575 -91 1722 -91 
Q 1428 -91 1123 -41 
Q 819 9 494 109 
L 494 744 
Q 775 591 1075 516 
Q 1375 441 1709 441 
Q 2250 441 2565 725 
Q 2881 1009 2881 1497 
Q 2881 1984 2565 2268 
Q 2250 2553 1709 2553 
Q 1456 2553 1204 2497 
Q 953 2441 691 2322 
L 691 4666 
z
" transform="scale(0.015625)"/>
       </defs>
       <use xlink:href="#DejaVuSans-30"/>
       <use xlink:href="#DejaVuSans-2e" transform="translate(63.623047 0)"/>
       <use xlink:href="#DejaVuSans-35" transform="translate(95.410156 0)"/>
      </g>
     </g>
    </g>
    <g id="text_13">
     <!-- Accuracy -->
     <g transform="translate(24.477188 239.009062) rotate(-90) scale(0.18 -0.18)">
      <defs>
       <path id="DejaVuSans-41" d="M 2188 4044 
L 1331 1722 
L 3047 1722 
L 2188 4044 
z
M 1831 4666 
L 2547 4666 
L 4325 0 
L 3669 0 
L 3244 1197 
L 1141 1197 
L 716 0 
L 50 0 
L 1831 4666 
z
" transform="scale(0.015625)"/>
       <path id="DejaVuSans-63" d="M 3122 3366 
L 3122 2828 
Q 2878 2963 2633 3030 
Q 2388 3097 2138 3097 
Q 1578 3097 1268 2742 
Q 959 2388 959 1747 
Q 959 1106 1268 751 
Q 1578 397 2138 397 
Q 2388 397 2633 464 
Q 2878 531 3122 666 
L 3122 134 
Q 2881 22 2623 -34 
Q 2366 -91 2075 -91 
Q 1284 -91 818 406 
Q 353 903 353 1747 
Q 353 2603 823 3093 
Q 1294 3584 2113 3584 
Q 2378 3584 2631 3529 
Q 2884 3475 3122 3366 
z
" transform="scale(0.015625)"/>
       <path id="DejaVuSans-75" d="M 544 1381 
L 544 3500 
L 1119 3500 
L 1119 1403 
Q 1119 906 1312 657 
Q 1506 409 1894 409 
Q 2359 409 2629 706 
Q 2900 1003 2900 1516 
L 2900 3500 
L 3475 3500 
L 3475 0 
L 2900 0 
L 2900 538 
Q 2691 219 2414 64 
Q 2138 -91 1772 -91 
Q 1169 -91 856 284 
Q 544 659 544 1381 
z
M 1991 3584 
L 1991 3584 
z
" transform="scale(0.015625)"/>
       <path id="DejaVuSans-72" d="M 2631 2963 
Q 2534 3019 2420 3045 
Q 2306 3072 2169 3072 
Q 1681 3072 1420 2755 
Q 1159 2438 1159 1844 
L 1159 0 
L 581 0 
L 581 3500 
L 1159 3500 
L 1159 2956 
Q 1341 3275 1631 3429 
Q 1922 3584 2338 3584 
Q 2397 3584 2469 3576 
Q 2541 3569 2628 3553 
L 2631 2963 
z
" transform="scale(0.015625)"/>
       <path id="DejaVuSans-61" d="M 2194 1759 
Q 1497 1759 1228 1600 
Q 959 1441 959 1056 
Q 959 750 1161 570 
Q 1363 391 1709 391 
Q 2188 391 2477 730 
Q 2766 1069 2766 1631 
L 2766 1759 
L 2194 1759 
z
M 3341 1997 
L 3341 0 
L 2766 0 
L 2766 531 
Q 2569 213 2275 61 
Q 1981 -91 1556 -91 
Q 1019 -91 701 211 
Q 384 513 384 1019 
Q 384 1609 779 1909 
Q 1175 2209 1959 2209 
L 2766 2209 
L 2766 2266 
Q 2766 2663 2505 2880 
Q 2244 3097 1772 3097 
Q 1472 3097 1187 3025 
Q 903 2953 641 2809 
L 641 3341 
Q 956 3463 1253 3523 
Q 1550 3584 1831 3584 
Q 2591 3584 2966 3190 
Q 3341 2797 3341 1997 
z
" transform="scale(0.015625)"/>
       <path id="DejaVuSans-79" d="M 2059 -325 
Q 1816 -950 1584 -1140 
Q 1353 -1331 966 -1331 
L 506 -1331 
L 506 -850 
L 844 -850 
Q 1081 -850 1212 -737 
Q 1344 -625 1503 -206 
L 1606 56 
L 191 3500 
L 800 3500 
L 1894 763 
L 2988 3500 
L 3597 3500 
L 2059 -325 
z
" transform="scale(0.015625)"/>
      </defs>
      <use xlink:href="#DejaVuSans-41"/>
      <use xlink:href="#DejaVuSans-63" transform="translate(66.658203 0)"/>
      <use xlink:href="#DejaVuSans-63" transform="translate(121.638672 0)"/>
      <use xlink:href="#DejaVuSans-75" transform="translate(176.619141 0)"/>
      <use xlink:href="#DejaVuSans-72" transform="translate(239.998047 0)"/>
      <use xlink:href="#DejaVuSans-61" transform="translate(281.111328 0)"/>
      <use xlink:href="#DejaVuSans-63" transform="translate(342.390625 0)"/>
      <use xlink:href="#DejaVuSans-79" transform="translate(397.371094 0)"/>
     </g>
    </g>
   </g>
   <g id="FillBetweenPolyCollection_1">
    <defs>
     <path id="m8c47ca3d77" d="M 81.581761 -92.214413 
L 81.581761 -78.598084 
L 86.926814 -90.491015 
L 92.271867 -111.737496 
L 97.61692 -119.268816 
L 102.961973 -129.037874 
L 108.307025 -132.416061 
L 113.652078 -157.253175 
L 118.997131 -170.708021 
L 124.342184 -183.541895 
L 129.687237 -186.322201 
L 135.032289 -186.091951 
L 140.377342 -180.473055 
L 145.722395 -194.126334 
L 151.067448 -199.137292 
L 156.412501 -193.295423 
L 161.757553 -199.408148 
L 167.102606 -200.835792 
L 172.447659 -202.285379 
L 177.792712 -209.251747 
L 183.137765 -210.029736 
L 188.482817 -210.8072 
L 193.82787 -204.39911 
L 199.172923 -212.194135 
L 204.517976 -204.246335 
L 209.863029 -203.170586 
L 215.208081 -209.397419 
L 220.553134 -216.678877 
L 225.898187 -219.605027 
L 231.24324 -233.190858 
L 236.588293 -224.306318 
L 241.933345 -237.348886 
L 247.278398 -225.648549 
L 252.623451 -232.169815 
L 257.968504 -231.257758 
L 263.313557 -221.278092 
L 268.658609 -236.882943 
L 274.003662 -236.322504 
L 279.348715 -228.884185 
L 284.693768 -236.717297 
L 290.038821 -241.02165 
L 295.383873 -237.976317 
L 300.728926 -247.648496 
L 306.073979 -251.115989 
L 311.419032 -247.525004 
L 316.764085 -247.718596 
L 322.109137 -253.888194 
L 327.45419 -258.979297 
L 332.799243 -257.091632 
L 338.144296 -254.232843 
L 343.489349 -260.710438 
L 348.834401 -254.999932 
L 354.179454 -250.772627 
L 359.524507 -263.296784 
L 364.86956 -258.59915 
L 370.214613 -254.22645 
L 375.559665 -254.937579 
L 380.904718 -268.942702 
L 386.249771 -259.194535 
L 391.594824 -264.700419 
L 396.939877 -258.965882 
L 402.284929 -260.069644 
L 407.629982 -263.852736 
L 412.975035 -261.170129 
L 418.320088 -271.576768 
L 423.665141 -266.086832 
L 429.010193 -279.138607 
L 434.355246 -278.323618 
L 439.700299 -276.447588 
L 445.045352 -268.800054 
L 450.390405 -270.09657 
L 455.735457 -275.177738 
L 461.08051 -270.214182 
L 466.425563 -271.613836 
L 471.770616 -281.02414 
L 477.115669 -278.069956 
L 482.460721 -286.249406 
L 487.805774 -272.957836 
L 493.150827 -272.964128 
L 498.49588 -280.512338 
L 503.840933 -275.523994 
L 509.185985 -288.052907 
L 514.531038 -292.479826 
L 519.876091 -285.842356 
L 525.221144 -277.015006 
L 530.566197 -279.07956 
L 535.911249 -272.963139 
L 541.256302 -275.945109 
L 546.601355 -286.138388 
L 551.946408 -273.884045 
L 557.291461 -291.689381 
L 562.636513 -283.04365 
L 567.981566 -285.007306 
L 573.326619 -288.424326 
L 578.671672 -285.188145 
L 584.016725 -283.058095 
L 589.361777 -279.117339 
L 594.70683 -299.329649 
L 600.051883 -292.050977 
L 605.396936 -282.308965 
L 610.741989 -281.693037 
L 610.741989 -329.521484 
L 610.741989 -329.521484 
L 605.396936 -338.454835 
L 600.051883 -329.380649 
L 594.70683 -335.836952 
L 589.361777 -311.580653 
L 584.016725 -323.528318 
L 578.671672 -328.905853 
L 573.326619 -322.233128 
L 567.981566 -340.889491 
L 562.636513 -333.549959 
L 557.291461 -318.146499 
L 551.946408 -319.438404 
L 546.601355 -320.389051 
L 541.256302 -309.002145 
L 535.911249 -308.971878 
L 530.566197 -305.362637 
L 525.221144 -334.304908 
L 519.876091 -335.91126 
L 514.531038 -340.817181 
L 509.185985 -338.610076 
L 503.840933 -329.421085 
L 498.49588 -324.356503 
L 493.150827 -306.244856 
L 487.805774 -318.308691 
L 482.460721 -323.242839 
L 477.115669 -303.811179 
L 471.770616 -307.355857 
L 466.425563 -321.072699 
L 461.08051 -332.867848 
L 455.735457 -312.721232 
L 450.390405 -314.025102 
L 445.045352 -299.015261 
L 439.700299 -318.588238 
L 434.355246 -312.628031 
L 429.010193 -322.741485 
L 423.665141 -323.101628 
L 418.320088 -317.961576 
L 412.975035 -302.777857 
L 407.629982 -295.901555 
L 402.284929 -307.825499 
L 396.939877 -319.098312 
L 391.594824 -307.310648 
L 386.249771 -300.636507 
L 380.904718 -289.164414 
L 375.559665 -291.504955 
L 370.214613 -298.581887 
L 364.86956 -306.500359 
L 359.524507 -283.779157 
L 354.179454 -281.919148 
L 348.834401 -284.802856 
L 343.489349 -298.139811 
L 338.144296 -281.664992 
L 332.799243 -305.718414 
L 327.45419 -302.765537 
L 322.109137 -282.372005 
L 316.764085 -285.432391 
L 311.419032 -277.832995 
L 306.073979 -279.692513 
L 300.728926 -273.202138 
L 295.383873 -279.731374 
L 290.038821 -281.845119 
L 284.693768 -263.771532 
L 279.348715 -262.704469 
L 274.003662 -260.077907 
L 268.658609 -266.601336 
L 263.313557 -265.307469 
L 257.968504 -270.463783 
L 252.623451 -250.691131 
L 247.278398 -256.643028 
L 241.933345 -258.163068 
L 236.588293 -272.092403 
L 231.24324 -274.242196 
L 225.898187 -255.247999 
L 220.553134 -263.658197 
L 215.208081 -255.555213 
L 209.863029 -237.700255 
L 204.517976 -246.681633 
L 199.172923 -239.766378 
L 193.82787 -227.628975 
L 188.482817 -251.461657 
L 183.137765 -256.466246 
L 177.792712 -248.970386 
L 172.447659 -226.756735 
L 167.102606 -241.16297 
L 161.757553 -230.464696 
L 156.412501 -220.660328 
L 151.067448 -223.563438 
L 145.722395 -214.554 
L 140.377342 -215.231914 
L 135.032289 -216.634396 
L 129.687237 -223.487883 
L 124.342184 -201.115413 
L 118.997131 -199.498342 
L 113.652078 -188.60119 
L 108.307025 -151.074255 
L 102.961973 -144.595754 
L 97.61692 -127.29952 
L 92.271867 -127.977549 
L 86.926814 -98.195059 
L 81.581761 -92.214413 
z
"/>
    </defs>
    <g clip-path="url(#pb1f0b31982)">
     <use xlink:href="#m8c47ca3d77" x="0" y="432" style="fill: #228b22; fill-opacity: 0.15"/>
    </g>
   </g>
   <g id="FillBetweenPolyCollection_2">
    <defs>
     <path id="m466fa2fc15" d="M 81.581761 -74.923824 
L 81.581761 -63.973892 
L 86.926814 -75.822699 
L 92.271867 -104.777097 
L 97.61692 -128.488602 
L 102.961973 -145.608085 
L 108.307025 -147.024222 
L 113.652078 -164.552285 
L 118.997131 -167.154119 
L 124.342184 -178.757778 
L 129.687237 -192.812915 
L 135.032289 -194.051728 
L 140.377342 -197.40208 
L 145.722395 -197.40208 
L 151.067448 -195.2505 
L 156.412501 -198.859892 
L 161.757553 -199.526694 
L 167.102606 -204.08971 
L 172.447659 -206.868051 
L 177.792712 -214.018193 
L 183.137765 -209.169171 
L 188.482817 -211.824938 
L 193.82787 -215.407364 
L 199.172923 -218.212671 
L 204.517976 -227.228387 
L 209.863029 -223.783244 
L 215.208081 -229.013062 
L 220.553134 -227.064955 
L 225.898187 -228.427159 
L 231.24324 -229.81633 
L 236.588293 -229.380784 
L 241.933345 -230.197943 
L 247.278398 -231.573222 
L 252.623451 -230.905603 
L 257.968504 -234.774034 
L 263.313557 -239.894353 
L 268.658609 -242.9587 
L 274.003662 -245.205887 
L 279.348715 -244.770341 
L 284.693768 -248.883103 
L 290.038821 -250.435705 
L 295.383873 -247.303534 
L 300.728926 -249.209967 
L 306.073979 -251.348472 
L 311.419032 -255.025688 
L 316.764085 -255.775023 
L 322.109137 -258.798511 
L 327.45419 -260.596261 
L 332.799243 -254.848364 
L 338.144296 -255.897597 
L 343.489349 -264.559483 
L 348.834401 -266.942319 
L 354.179454 -268.80871 
L 359.524507 -263.660608 
L 364.86956 -262.625267 
L 370.214613 -269.434654 
L 375.559665 -267.650796 
L 380.904718 -266.792779 
L 386.249771 -267.977659 
L 391.594824 -269.707585 
L 396.939877 -275.019119 
L 402.284929 -276.598688 
L 407.629982 -274.868762 
L 412.975035 -279.567427 
L 418.320088 -281.093063 
L 423.665141 -282.182336 
L 429.010193 -281.869364 
L 434.355246 -281.638108 
L 439.700299 -284.892853 
L 445.045352 -284.416449 
L 450.390405 -285.178858 
L 455.735457 -285.260574 
L 461.08051 -284.960677 
L 466.425563 -285.955159 
L 471.770616 -286.063842 
L 477.115669 -288.719609 
L 482.460721 -288.651785 
L 487.805774 -287.28958 
L 493.150827 -287.848517 
L 498.49588 -290.504284 
L 503.840933 -290.558217 
L 509.185985 -287.916341 
L 514.531038 -291.334518 
L 519.876091 -291.797847 
L 525.221144 -291.689165 
L 530.566197 -293.050552 
L 535.911249 -294.807444 
L 541.256302 -293.650347 
L 546.601355 -295.9245 
L 551.946408 -296.38783 
L 557.291461 -297.57271 
L 562.636513 -298.07608 
L 567.981566 -298.07608 
L 573.326619 -298.035222 
L 578.671672 -297.191097 
L 584.016725 -301.113461 
L 589.361777 -299.683432 
L 594.70683 -301.31775 
L 600.051883 -303.033785 
L 605.396936 -302.598239 
L 610.741989 -300.582307 
L 610.741989 -308.672182 
L 610.741989 -308.672182 
L 605.396936 -308.999046 
L 600.051883 -305.280972 
L 594.70683 -305.826017 
L 589.361777 -303.891802 
L 584.016725 -304.504671 
L 578.671672 -305.566978 
L 573.326619 -302.952069 
L 567.981566 -303.305899 
L 562.636513 -302.529597 
L 557.291461 -302.353091 
L 551.946408 -300.4867 
L 546.601355 -302.121018 
L 541.256302 -302.312233 
L 535.911249 -302.271375 
L 530.566197 -302.189659 
L 525.221144 -301.862796 
L 519.876091 -300.582307 
L 514.531038 -299.125313 
L 509.185985 -296.441762 
L 503.840933 -294.725728 
L 498.49588 -294.358006 
L 493.150827 -294.099784 
L 487.805774 -292.927978 
L 482.460721 -291.307552 
L 477.115669 -289.918381 
L 471.770616 -288.93779 
L 466.425563 -288.529211 
L 461.08051 -285.34229 
L 455.735457 -287.671194 
L 450.390405 -288.025023 
L 445.045352 -288.610927 
L 439.700299 -288.284063 
L 434.355246 -286.881001 
L 429.010193 -284.702455 
L 423.665141 -284.974569 
L 418.320088 -281.883256 
L 412.975035 -281.515534 
L 407.629982 -280.262012 
L 402.284929 -280.316762 
L 396.939877 -279.009307 
L 391.594824 -278.805017 
L 386.249771 -279.131881 
L 380.904718 -278.219114 
L 375.559665 -274.283676 
L 370.214613 -273.125762 
L 364.86956 -273.084904 
L 359.524507 -272.363352 
L 354.179454 -273.915955 
L 348.834401 -270.715142 
L 343.489349 -267.596046 
L 338.144296 -268.236699 
L 332.799243 -265.389717 
L 327.45419 -265.648756 
L 322.109137 -264.300444 
L 316.764085 -262.216688 
L 311.419032 -262.271438 
L 306.073979 -258.975018 
L 300.728926 -253.786058 
L 295.383873 -250.286165 
L 290.038821 -252.083915 
L 284.693768 -250.899034 
L 279.348715 -250.300057 
L 274.003662 -248.529273 
L 268.658609 -246.881063 
L 263.313557 -247.807722 
L 257.968504 -249.877586 
L 252.623451 -244.157472 
L 247.278398 -248.433665 
L 241.933345 -242.836126 
L 236.588293 -239.690063 
L 231.24324 -243.054307 
L 225.898187 -241.801602 
L 220.553134 -236.966472 
L 215.208081 -233.044108 
L 209.863029 -229.734614 
L 204.517976 -231.328074 
L 199.172923 -224.041467 
L 193.82787 -223.319915 
L 188.482817 -218.566501 
L 183.137765 -220.255568 
L 177.792712 -219.370585 
L 172.447659 -218.212671 
L 167.102606 -213.050677 
L 161.757553 -210.381835 
L 156.412501 -208.924023 
L 151.067448 -204.825153 
L 145.722395 -202.59104 
L 140.377342 -205.532813 
L 135.032289 -203.967136 
L 129.687237 -194.909745 
L 124.342184 -191.967972 
L 118.997131 -191.80454 
L 113.652078 -191.096881 
L 108.307025 -183.714665 
L 102.961973 -155.632176 
L 97.61692 -141.822187 
L 92.271867 -139.588074 
L 86.926814 -103.728682 
L 81.581761 -74.923824 
z
"/>
    </defs>
    <g clip-path="url(#pb1f0b31982)">
     <use xlink:href="#m466fa2fc15" x="0" y="432" style="fill: #dc143c; fill-opacity: 0.15"/>
    </g>
   </g>
   <g id="FillBetweenPolyCollection_3">
    <defs>
     <path id="macc83d74c5" d="M 81.581761 -83.560863 
L 81.581761 -72.176106 
L 86.926814 -71.689599 
L 92.271867 -123.106444 
L 97.61692 -163.630985 
L 102.961973 -172.16799 
L 108.307025 -191.995283 
L 113.652078 -195.117335 
L 118.997131 -191.727114 
L 124.342184 -203.70733 
L 129.687237 -214.28243 
L 135.032289 -217.177879 
L 140.377342 -215.22127 
L 145.722395 -224.909598 
L 151.067448 -234.667031 
L 156.412501 -232.070265 
L 161.757553 -231.541965 
L 167.102606 -234.642678 
L 172.447659 -246.747306 
L 177.792712 -241.107352 
L 183.137765 -243.099728 
L 188.482817 -248.532891 
L 193.82787 -250.602244 
L 199.172923 -261.776574 
L 204.517976 -259.67264 
L 209.863029 -273.828177 
L 215.208081 -276.036996 
L 220.553134 -267.051714 
L 225.898187 -273.241067 
L 231.24324 -276.706479 
L 236.588293 -266.33053 
L 241.933345 -271.875989 
L 247.278398 -284.748012 
L 252.623451 -276.977041 
L 257.968504 -283.176417 
L 263.313557 -284.899489 
L 268.658609 -277.72545 
L 274.003662 -281.494653 
L 279.348715 -280.683029 
L 284.693768 -288.453311 
L 290.038821 -296.832508 
L 295.383873 -289.12577 
L 300.728926 -295.97532 
L 306.073979 -284.923443 
L 311.419032 -286.626889 
L 316.764085 -286.861667 
L 322.109137 -283.747614 
L 327.45419 -294.891632 
L 332.799243 -296.565065 
L 338.144296 -297.038747 
L 343.489349 -309.7364 
L 348.834401 -293.431203 
L 354.179454 -309.606126 
L 359.524507 -308.378613 
L 364.86956 -310.411324 
L 370.214613 -313.910283 
L 375.559665 -315.035291 
L 380.904718 -308.164863 
L 386.249771 -309.613932 
L 391.594824 -307.901497 
L 396.939877 -305.365772 
L 402.284929 -316.70732 
L 407.629982 -314.441874 
L 412.975035 -308.205267 
L 418.320088 -322.520091 
L 423.665141 -326.424635 
L 429.010193 -313.813363 
L 434.355246 -322.823604 
L 439.700299 -328.368292 
L 445.045352 -314.452998 
L 450.390405 -313.558499 
L 455.735457 -318.272587 
L 461.08051 -331.960627 
L 466.425563 -314.499751 
L 471.770616 -322.854244 
L 477.115669 -333.45498 
L 482.460721 -318.438599 
L 487.805774 -334.572061 
L 493.150827 -323.840952 
L 498.49588 -320.160122 
L 503.840933 -325.390865 
L 509.185985 -336.434534 
L 514.531038 -345.243729 
L 519.876091 -329.245949 
L 525.221144 -326.031965 
L 530.566197 -331.841175 
L 535.911249 -326.656784 
L 541.256302 -347.785241 
L 546.601355 -338.884747 
L 551.946408 -338.85564 
L 557.291461 -351.139191 
L 562.636513 -350.713865 
L 567.981566 -335.910546 
L 573.326619 -348.879025 
L 578.671672 -350.561627 
L 584.016725 -356.663522 
L 589.361777 -332.749091 
L 594.70683 -338.32053 
L 600.051883 -340.871494 
L 605.396936 -354.148428 
L 610.741989 -343.365497 
L 610.741989 -396.325512 
L 610.741989 -396.325512 
L 605.396936 -404.189233 
L 600.051883 -402.564622 
L 594.70683 -389.62892 
L 589.361777 -391.775129 
L 584.016725 -402.408293 
L 578.671672 -400.880325 
L 573.326619 -386.40251 
L 567.981566 -371.687495 
L 562.636513 -403.994248 
L 557.291461 -391.831524 
L 551.946408 -394.632873 
L 546.601355 -364.347002 
L 541.256302 -381.656173 
L 535.911249 -368.998001 
L 530.566197 -381.943097 
L 525.221144 -385.795695 
L 519.876091 -371.080316 
L 514.531038 -388.703389 
L 509.185985 -396.269626 
L 503.840933 -393.83413 
L 498.49588 -375.404792 
L 493.150827 -355.282419 
L 487.805774 -374.858748 
L 482.460721 -362.425558 
L 477.115669 -381.71053 
L 471.770616 -358.045474 
L 466.425563 -360.759096 
L 461.08051 -386.479564 
L 455.735457 -354.924125 
L 450.390405 -377.702189 
L 445.045352 -367.04641 
L 439.700299 -352.141493 
L 434.355246 -346.205946 
L 429.010193 -358.080372 
L 423.665141 -364.958946 
L 418.320088 -339.98939 
L 412.975035 -350.110196 
L 407.629982 -342.436125 
L 402.284929 -345.593044 
L 396.939877 -364.570143 
L 391.594824 -344.082754 
L 386.249771 -341.627569 
L 380.904718 -344.168974 
L 375.559665 -340.941455 
L 370.214613 -335.764853 
L 364.86956 -338.860107 
L 359.524507 -362.105854 
L 354.179454 -339.575375 
L 348.834401 -360.533001 
L 343.489349 -341.728774 
L 338.144296 -327.811381 
L 332.799243 -357.599623 
L 327.45419 -349.64725 
L 322.109137 -337.310328 
L 316.764085 -341.115752 
L 311.419032 -329.787389 
L 306.073979 -317.105871 
L 300.728926 -323.815867 
L 295.383873 -320.628273 
L 290.038821 -314.740225 
L 284.693768 -321.906259 
L 279.348715 -335.128315 
L 274.003662 -338.607715 
L 268.658609 -318.890226 
L 263.313557 -319.45826 
L 257.968504 -308.82023 
L 252.623451 -320.165095 
L 247.278398 -309.007381 
L 241.933345 -322.798734 
L 236.588293 -327.321187 
L 231.24324 -315.859478 
L 225.898187 -305.589263 
L 220.553134 -301.802813 
L 215.208081 -317.918183 
L 209.863029 -308.208985 
L 204.517976 -293.72446 
L 199.172923 -297.660513 
L 193.82787 -291.476254 
L 188.482817 -280.303767 
L 183.137765 -272.900784 
L 177.792712 -274.93815 
L 172.447659 -276.459381 
L 167.102606 -272.78046 
L 161.757553 -260.022733 
L 156.412501 -266.993114 
L 151.067448 -268.591139 
L 145.722395 -262.868999 
L 140.377342 -233.437132 
L 135.032289 -249.499398 
L 129.687237 -248.006036 
L 124.342184 -221.316669 
L 118.997131 -219.177177 
L 113.652078 -216.83177 
L 108.307025 -210.867765 
L 102.961973 -199.776595 
L 97.61692 -188.199726 
L 92.271867 -137.497518 
L 86.926814 -79.408297 
L 81.581761 -83.560863 
z
"/>
    </defs>
    <g clip-path="url(#pb1f0b31982)">
     <use xlink:href="#macc83d74c5" x="0" y="432" style="fill: #ff8c00; fill-opacity: 0.15"/>
    </g>
   </g>
   <g id="line2d_23">
    <path d="M 81.581761 353.401916 
L 86.926814 341.508985 
L 92.271867 320.262504 
L 97.61692 312.731184 
L 102.961973 302.962126 
L 108.307025 299.583939 
L 113.652078 274.746825 
L 118.997131 261.291979 
L 124.342184 248.458105 
L 129.687237 245.677799 
L 135.032289 245.908049 
L 140.377342 251.526945 
L 145.722395 237.873666 
L 151.067448 232.862708 
L 156.412501 238.704577 
L 161.757553 232.591852 
L 167.102606 231.164208 
L 172.447659 229.714621 
L 177.792712 222.748253 
L 183.137765 221.970264 
L 188.482817 221.1928 
L 193.82787 227.60089 
L 199.172923 219.805865 
L 204.517976 227.753665 
L 209.863029 228.829414 
L 215.208081 222.602581 
L 220.553134 215.321123 
L 225.898187 212.394973 
L 231.24324 198.809142 
L 236.588293 207.693682 
L 241.933345 194.651114 
L 247.278398 206.351451 
L 252.623451 199.830185 
L 257.968504 200.742242 
L 263.313557 210.721908 
L 268.658609 195.117057 
L 274.003662 195.677496 
L 279.348715 203.115815 
L 284.693768 195.282703 
L 290.038821 190.97835 
L 295.383873 194.023683 
L 300.728926 184.351504 
L 306.073979 180.884011 
L 311.419032 184.474996 
L 316.764085 184.281404 
L 322.109137 178.111806 
L 327.45419 173.020703 
L 332.799243 174.908368 
L 338.144296 177.767157 
L 343.489349 171.289562 
L 348.834401 177.000068 
L 354.179454 181.227373 
L 359.524507 168.703216 
L 364.86956 173.40085 
L 370.214613 177.77355 
L 375.559665 177.062421 
L 380.904718 163.057298 
L 386.249771 172.805465 
L 391.594824 167.299581 
L 396.939877 173.034118 
L 402.284929 171.930356 
L 407.629982 168.147264 
L 412.975035 170.829871 
L 418.320088 160.423232 
L 423.665141 165.913168 
L 429.010193 152.861393 
L 434.355246 153.676382 
L 439.700299 155.552412 
L 445.045352 163.199946 
L 450.390405 161.90343 
L 455.735457 156.822262 
L 461.08051 161.785818 
L 466.425563 160.386164 
L 471.770616 150.97586 
L 477.115669 153.930044 
L 482.460721 145.750594 
L 487.805774 159.042164 
L 493.150827 159.035872 
L 498.49588 151.487662 
L 503.840933 156.476006 
L 509.185985 143.947093 
L 514.531038 139.520174 
L 519.876091 146.157644 
L 525.221144 154.984994 
L 530.566197 152.92044 
L 535.911249 159.036861 
L 541.256302 156.054891 
L 546.601355 145.861612 
L 551.946408 158.115955 
L 557.291461 140.310619 
L 562.636513 148.95635 
L 567.981566 146.992694 
L 573.326619 143.575674 
L 578.671672 146.811855 
L 584.016725 148.941905 
L 589.361777 152.882661 
L 594.70683 132.670351 
L 600.051883 139.949023 
L 605.396936 149.691035 
L 610.741989 150.306963 
" clip-path="url(#pb1f0b31982)" style="fill: none; stroke-dasharray: 3.7,1.6; stroke-dashoffset: 0; stroke: #228b22; stroke-opacity: 0.4"/>
   </g>
   <g id="line2d_24">
    <path d="M 81.581761 339.785587 
L 86.926814 333.804941 
L 92.271867 304.022451 
L 97.61692 304.70048 
L 102.961973 287.404246 
L 108.307025 280.925745 
L 113.652078 243.39881 
L 118.997131 232.501658 
L 124.342184 230.884587 
L 129.687237 208.512117 
L 135.032289 215.365604 
L 140.377342 216.768086 
L 145.722395 217.446 
L 151.067448 208.436562 
L 156.412501 211.339672 
L 161.757553 201.535304 
L 167.102606 190.83703 
L 172.447659 205.243265 
L 177.792712 183.029614 
L 183.137765 175.533754 
L 188.482817 180.538343 
L 193.82787 204.371025 
L 199.172923 192.233622 
L 204.517976 185.318367 
L 209.863029 194.299745 
L 215.208081 176.444787 
L 220.553134 168.341803 
L 225.898187 176.752001 
L 231.24324 157.757804 
L 236.588293 159.907597 
L 241.933345 173.836932 
L 247.278398 175.356972 
L 252.623451 181.308869 
L 257.968504 161.536217 
L 263.313557 166.692531 
L 268.658609 165.398664 
L 274.003662 171.922093 
L 279.348715 169.295531 
L 284.693768 168.228468 
L 290.038821 150.154881 
L 295.383873 152.268626 
L 300.728926 158.797862 
L 306.073979 152.307487 
L 311.419032 154.167005 
L 316.764085 146.567609 
L 322.109137 149.627995 
L 327.45419 129.234463 
L 332.799243 126.281586 
L 338.144296 150.335008 
L 343.489349 133.860189 
L 348.834401 147.197144 
L 354.179454 150.080852 
L 359.524507 148.220843 
L 364.86956 125.499641 
L 370.214613 133.418113 
L 375.559665 140.495045 
L 380.904718 142.835586 
L 386.249771 131.363493 
L 391.594824 124.689352 
L 396.939877 112.901688 
L 402.284929 124.174501 
L 407.629982 136.098445 
L 412.975035 129.222143 
L 418.320088 114.038424 
L 423.665141 108.898372 
L 429.010193 109.258515 
L 434.355246 119.371969 
L 439.700299 113.411762 
L 445.045352 132.984739 
L 450.390405 117.974898 
L 455.735457 119.278768 
L 461.08051 99.132152 
L 466.425563 110.927301 
L 471.770616 124.644143 
L 477.115669 128.188821 
L 482.460721 108.757161 
L 487.805774 113.691309 
L 493.150827 125.755144 
L 498.49588 107.643497 
L 503.840933 102.578915 
L 509.185985 93.389924 
L 514.531038 91.182819 
L 519.876091 96.08874 
L 525.221144 97.695092 
L 530.566197 126.637363 
L 535.911249 123.028122 
L 541.256302 122.997855 
L 546.601355 111.610949 
L 551.946408 112.561596 
L 557.291461 113.853501 
L 562.636513 98.450041 
L 567.981566 91.110509 
L 573.326619 109.766872 
L 578.671672 103.094147 
L 584.016725 108.471682 
L 589.361777 120.419347 
L 594.70683 96.163048 
L 600.051883 102.619351 
L 605.396936 93.545165 
L 610.741989 102.478516 
" clip-path="url(#pb1f0b31982)" style="fill: none; stroke-dasharray: 3.7,1.6; stroke-dashoffset: 0; stroke: #228b22; stroke-opacity: 0.4"/>
   </g>
   <g id="line2d_25">
    <path d="M 81.581761 350.348505 
L 86.926814 337.21921 
L 92.271867 309.517517 
L 97.61692 309.558375 
L 102.961973 300.147154 
L 108.307025 292.384142 
L 113.652078 259.248341 
L 118.997131 249.252034 
L 124.342184 242.565221 
L 129.687237 233.413039 
L 135.032289 233.793835 
L 140.377342 236.027948 
L 145.722395 230.471266 
L 151.067448 222.231034 
L 156.412501 219.507443 
L 161.757553 217.055966 
L 167.102606 218.745033 
L 172.447659 210.300511 
L 177.792712 209.619818 
L 183.137765 205.343624 
L 188.482817 208.407971 
L 193.82787 209.987539 
L 199.172923 215.312965 
L 204.517976 209.619818 
L 209.863029 208.979982 
L 215.208081 201.938522 
L 220.553134 198.43863 
L 225.898187 194.311977 
L 231.24324 189.585528 
L 236.588293 189.149983 
L 241.933345 188.073784 
L 247.278398 185.895238 
L 252.623451 187.897278 
L 257.968504 188.196358 
L 263.313557 189.558562 
L 268.658609 186.698505 
L 274.003662 182.626602 
L 279.348715 180.9645 
L 284.693768 178.86767 
L 290.038821 169.225192 
L 295.383873 170.709153 
L 300.728926 168.271568 
L 306.073979 173.106698 
L 311.419032 169.565131 
L 316.764085 166.569425 
L 322.109137 163.885875 
L 327.45419 163.068716 
L 332.799243 158.778631 
L 338.144296 156.150647 
L 343.489349 158.996812 
L 348.834401 156.204579 
L 354.179454 155.823783 
L 359.524507 158.588233 
L 364.86956 157.172096 
L 370.214613 156.368011 
L 375.559665 154.897125 
L 380.904718 154.134716 
L 386.249771 156.014181 
L 391.594824 149.572516 
L 396.939877 148.40071 
L 402.284929 146.575994 
L 407.629982 144.669562 
L 412.975035 145.499795 
L 418.320088 142.884886 
L 423.665141 143.239533 
L 429.010193 143.552505 
L 434.355246 144.192341 
L 439.700299 142.422374 
L 445.045352 139.31717 
L 450.390405 138.486119 
L 455.735457 137.682852 
L 461.08051 135.979892 
L 466.425563 137.40992 
L 471.770616 136.034642 
L 477.115669 136.551903 
L 482.460721 138.159255 
L 487.805774 138.009715 
L 493.150827 136.361505 
L 498.49588 135.340056 
L 503.840933 132.902471 
L 509.185985 130.927397 
L 514.531038 130.709216 
L 519.876091 131.948846 
L 525.221144 132.847721 
L 530.566197 134.059568 
L 535.911249 134.441181 
L 541.256302 133.201551 
L 546.601355 130.614425 
L 551.946408 131.812381 
L 557.291461 129.810341 
L 562.636513 128.053449 
L 567.981566 128.408096 
L 573.326619 131.444659 
L 578.671672 131.049971 
L 584.016725 129.932915 
L 589.361777 128.32638 
L 594.70683 123.354784 
L 600.051883 127.113716 
L 605.396936 124.93517 
L 610.741989 123.313926 
" clip-path="url(#pb1f0b31982)" style="fill: none; stroke: #228b22; stroke-width: 1.8; stroke-linecap: square"/>
    <defs>
     <path id="me5b35fc89a" d="M 0 3 
C 0.795609 3 1.55874 2.683901 2.12132 2.12132 
C 2.683901 1.55874 3 0.795609 3 0 
C 3 -0.795609 2.683901 -1.55874 2.12132 -2.12132 
C 1.55874 -2.683901 0.795609 -3 0 -3 
C -0.795609 -3 -1.55874 -2.683901 -2.12132 -2.12132 
C -2.683901 -1.55874 -3 -0.795609 -3 0 
C -3 0.795609 -2.683901 1.55874 -2.12132 2.12132 
C -1.55874 2.683901 -0.795609 3 0 3 
z
" style="stroke: #000000; stroke-width: 0.4"/>
    </defs>
    <g clip-path="url(#pb1f0b31982)">
     <use xlink:href="#me5b35fc89a" x="81.581761" y="350.348505" style="fill: #228b22; stroke: #000000; stroke-width: 0.4"/>
     <use xlink:href="#me5b35fc89a" x="135.032289" y="233.793835" style="fill: #228b22; stroke: #000000; stroke-width: 0.4"/>
     <use xlink:href="#me5b35fc89a" x="188.482817" y="208.407971" style="fill: #228b22; stroke: #000000; stroke-width: 0.4"/>
     <use xlink:href="#me5b35fc89a" x="241.933345" y="188.073784" style="fill: #228b22; stroke: #000000; stroke-width: 0.4"/>
     <use xlink:href="#me5b35fc89a" x="295.383873" y="170.709153" style="fill: #228b22; stroke: #000000; stroke-width: 0.4"/>
     <use xlink:href="#me5b35fc89a" x="348.834401" y="156.204579" style="fill: #228b22; stroke: #000000; stroke-width: 0.4"/>
     <use xlink:href="#me5b35fc89a" x="402.284929" y="146.575994" style="fill: #228b22; stroke: #000000; stroke-width: 0.4"/>
     <use xlink:href="#me5b35fc89a" x="455.735457" y="137.682852" style="fill: #228b22; stroke: #000000; stroke-width: 0.4"/>
     <use xlink:href="#me5b35fc89a" x="509.185985" y="130.927397" style="fill: #228b22; stroke: #000000; stroke-width: 0.4"/>
     <use xlink:href="#me5b35fc89a" x="562.636513" y="128.053449" style="fill: #228b22; stroke: #000000; stroke-width: 0.4"/>
    </g>
   </g>
   <g id="line2d_26">
    <path d="M 81.581761 368.026108 
L 86.926814 356.177301 
L 92.271867 327.222903 
L 97.61692 303.511398 
L 102.961973 286.391915 
L 108.307025 284.975778 
L 113.652078 267.447715 
L 118.997131 264.845881 
L 124.342184 253.242222 
L 129.687237 239.187085 
L 135.032289 237.948272 
L 140.377342 234.59792 
L 145.722395 234.59792 
L 151.067448 236.7495 
L 156.412501 233.140108 
L 161.757553 232.473306 
L 167.102606 227.91029 
L 172.447659 225.131949 
L 177.792712 217.981807 
L 183.137765 222.830829 
L 188.482817 220.175062 
L 193.82787 216.592636 
L 199.172923 213.787329 
L 204.517976 204.771613 
L 209.863029 208.216756 
L 215.208081 202.986938 
L 220.553134 204.935045 
L 225.898187 203.572841 
L 231.24324 202.18367 
L 236.588293 202.619216 
L 241.933345 201.802057 
L 247.278398 200.426778 
L 252.623451 201.094397 
L 257.968504 197.225966 
L 263.313557 192.105647 
L 268.658609 189.0413 
L 274.003662 186.794113 
L 279.348715 187.229659 
L 284.693768 183.116897 
L 290.038821 181.564295 
L 295.383873 184.696466 
L 300.728926 182.790033 
L 306.073979 180.651528 
L 311.419032 176.974312 
L 316.764085 176.224977 
L 322.109137 173.201489 
L 327.45419 171.403739 
L 332.799243 177.151636 
L 338.144296 176.102403 
L 343.489349 167.440517 
L 348.834401 165.057681 
L 354.179454 163.19129 
L 359.524507 168.339392 
L 364.86956 169.374733 
L 370.214613 162.565346 
L 375.559665 164.349204 
L 380.904718 165.207221 
L 386.249771 164.022341 
L 391.594824 162.292415 
L 396.939877 156.980881 
L 402.284929 155.401312 
L 407.629982 157.131238 
L 412.975035 152.432573 
L 418.320088 150.906937 
L 423.665141 149.817664 
L 429.010193 150.130636 
L 434.355246 150.361892 
L 439.700299 147.107147 
L 445.045352 147.583551 
L 450.390405 146.821142 
L 455.735457 146.739426 
L 461.08051 147.039323 
L 466.425563 146.044841 
L 471.770616 145.936158 
L 477.115669 143.280391 
L 482.460721 143.348215 
L 487.805774 144.71042 
L 493.150827 144.151483 
L 498.49588 141.495716 
L 503.840933 141.441783 
L 509.185985 144.083659 
L 514.531038 140.665482 
L 519.876091 140.202153 
L 525.221144 140.310835 
L 530.566197 138.949448 
L 535.911249 137.192556 
L 541.256302 138.349653 
L 546.601355 136.0755 
L 551.946408 135.61217 
L 557.291461 134.42729 
L 562.636513 133.92392 
L 567.981566 133.92392 
L 573.326619 133.964778 
L 578.671672 134.808903 
L 584.016725 130.886539 
L 589.361777 132.316568 
L 594.70683 130.68225 
L 600.051883 128.966215 
L 605.396936 129.401761 
L 610.741989 131.417693 
" clip-path="url(#pb1f0b31982)" style="fill: none; stroke-dasharray: 3.7,1.6; stroke-dashoffset: 0; stroke: #dc143c; stroke-opacity: 0.4"/>
   </g>
   <g id="line2d_27">
    <path d="M 81.581761 357.076176 
L 86.926814 328.271318 
L 92.271867 292.411926 
L 97.61692 290.177813 
L 102.961973 276.367824 
L 108.307025 248.285335 
L 113.652078 240.903119 
L 118.997131 240.19546 
L 124.342184 240.032028 
L 129.687237 237.090255 
L 135.032289 228.032864 
L 140.377342 226.467187 
L 145.722395 229.40896 
L 151.067448 227.174847 
L 156.412501 223.075977 
L 161.757553 221.618165 
L 167.102606 218.949323 
L 172.447659 213.787329 
L 177.792712 212.629415 
L 183.137765 211.744432 
L 188.482817 213.433499 
L 193.82787 208.680085 
L 199.172923 207.958533 
L 204.517976 200.671926 
L 209.863029 202.265386 
L 215.208081 198.955892 
L 220.553134 195.033528 
L 225.898187 190.198398 
L 231.24324 188.945693 
L 236.588293 192.309937 
L 241.933345 189.163874 
L 247.278398 183.566335 
L 252.623451 187.842528 
L 257.968504 182.122414 
L 263.313557 184.192278 
L 268.658609 185.118937 
L 274.003662 183.470727 
L 279.348715 181.699943 
L 284.693768 181.100966 
L 290.038821 179.916085 
L 295.383873 181.713835 
L 300.728926 178.213942 
L 306.073979 173.024982 
L 311.419032 169.728562 
L 316.764085 169.783312 
L 322.109137 167.699556 
L 327.45419 166.351244 
L 332.799243 166.610283 
L 338.144296 163.763301 
L 343.489349 164.403954 
L 348.834401 161.284858 
L 354.179454 158.084045 
L 359.524507 159.636648 
L 364.86956 158.915096 
L 370.214613 158.874238 
L 375.559665 157.716324 
L 380.904718 153.780886 
L 386.249771 152.868119 
L 391.594824 153.194983 
L 396.939877 152.990693 
L 402.284929 151.683238 
L 407.629982 151.737988 
L 412.975035 150.484466 
L 418.320088 150.116744 
L 423.665141 147.025431 
L 429.010193 147.297545 
L 434.355246 145.118999 
L 439.700299 143.715937 
L 445.045352 143.389073 
L 450.390405 143.974977 
L 455.735457 144.328806 
L 461.08051 146.65771 
L 466.425563 143.470789 
L 471.770616 143.06221 
L 477.115669 142.081619 
L 482.460721 140.692448 
L 487.805774 139.072022 
L 493.150827 137.900216 
L 498.49588 137.641994 
L 503.840933 137.274272 
L 509.185985 135.558238 
L 514.531038 132.874687 
L 519.876091 131.417693 
L 525.221144 130.137204 
L 530.566197 129.810341 
L 535.911249 129.728625 
L 541.256302 129.687767 
L 546.601355 129.878982 
L 551.946408 131.5133 
L 557.291461 129.646909 
L 562.636513 129.470403 
L 567.981566 128.694101 
L 573.326619 129.047931 
L 578.671672 126.433022 
L 584.016725 127.495329 
L 589.361777 128.108198 
L 594.70683 126.173983 
L 600.051883 126.719028 
L 605.396936 123.000954 
L 610.741989 123.327818 
" clip-path="url(#pb1f0b31982)" style="fill: none; stroke-dasharray: 3.7,1.6; stroke-dashoffset: 0; stroke: #dc143c; stroke-opacity: 0.4"/>
   </g>
   <g id="line2d_28">
    <path d="M 81.581761 361.552301 
L 86.926814 341.772693 
L 92.271867 314.416113 
L 97.61692 295.008312 
L 102.961973 280.25396 
L 108.307025 268.564499 
L 113.652078 257.623284 
L 118.997131 253.551108 
L 124.342184 244.562358 
L 129.687237 238.088824 
L 135.032289 233.571568 
L 140.377342 231.674125 
L 145.722395 231.147602 
L 151.067448 232.427545 
L 156.412501 229.404057 
L 161.757553 227.529221 
L 167.102606 224.605698 
L 172.447659 219.121471 
L 177.792712 214.459034 
L 183.137765 216.375 
L 188.482817 215.766761 
L 193.82787 212.661284 
L 199.172923 211.635477 
L 204.517976 202.878255 
L 209.863029 204.58067 
L 215.208081 200.335801 
L 220.553134 199.82317 
L 225.898187 197.35317 
L 231.24324 196.300125 
L 236.588293 197.139892 
L 241.933345 195.641767 
L 247.278398 193.136085 
L 252.623451 193.785181 
L 257.968504 190.443818 
L 263.313557 188.77763 
L 268.658609 186.716755 
L 274.003662 184.655608 
L 279.348715 183.743113 
L 284.693768 181.868278 
L 290.038821 181.00563 
L 295.383873 183.252818 
L 300.728926 180.356534 
L 306.073979 175.889397 
L 311.419032 173.074557 
L 316.764085 173.042687 
L 322.109137 171.181471 
L 327.45419 168.598431 
L 332.799243 171.07742 
L 338.144296 169.37446 
L 343.489349 166.419341 
L 348.834401 163.795443 
L 354.179454 161.066676 
L 359.524507 163.086966 
L 364.86956 163.064358 
L 370.214613 160.25442 
L 375.559665 160.463068 
L 380.904718 158.506517 
L 386.249771 158.211522 
L 391.594824 157.189801 
L 396.939877 154.706727 
L 402.284929 153.771624 
L 407.629982 153.576596 
L 412.975035 151.519806 
L 418.320088 150.403022 
L 423.665141 148.228562 
L 429.010193 148.913886 
L 434.355246 147.388522 
L 439.700299 145.154954 
L 445.045352 145.340994 
L 450.390405 145.781715 
L 455.735457 145.708988 
L 461.08051 146.893869 
L 466.425563 144.691897 
L 471.770616 144.269971 
L 477.115669 142.526698 
L 482.460721 142.322136 
L 487.805774 142.022783 
L 493.150827 141.22796 
L 498.49588 139.965994 
L 503.840933 138.690681 
L 509.185985 139.875289 
L 514.531038 137.214892 
L 519.876091 136.438591 
L 525.221144 135.358034 
L 530.566197 135.898448 
L 535.911249 134.527528 
L 541.256302 134.236619 
L 546.601355 132.607204 
L 551.946408 133.387863 
L 557.291461 132.520585 
L 562.636513 131.976357 
L 567.981566 131.881022 
L 573.326619 131.26788 
L 578.671672 130.377994 
L 584.016725 129.710647 
L 589.361777 130.164715 
L 594.70683 128.602852 
L 600.051883 127.903909 
L 605.396936 126.237721 
L 610.741989 126.124409 
" clip-path="url(#pb1f0b31982)" style="fill: none; stroke: #dc143c; stroke-width: 1.8; stroke-linecap: square"/>
    <defs>
     <path id="m106c255b84" d="M -3 3 
L 3 3 
L 3 -3 
L -3 -3 
z
" style="stroke: #000000; stroke-width: 0.4; stroke-linejoin: miter"/>
    </defs>
    <g clip-path="url(#pb1f0b31982)">
     <use xlink:href="#m106c255b84" x="81.581761" y="361.552301" style="fill: #dc143c; stroke: #000000; stroke-width: 0.4; stroke-linejoin: miter"/>
     <use xlink:href="#m106c255b84" x="135.032289" y="233.571568" style="fill: #dc143c; stroke: #000000; stroke-width: 0.4; stroke-linejoin: miter"/>
     <use xlink:href="#m106c255b84" x="188.482817" y="215.766761" style="fill: #dc143c; stroke: #000000; stroke-width: 0.4; stroke-linejoin: miter"/>
     <use xlink:href="#m106c255b84" x="241.933345" y="195.641767" style="fill: #dc143c; stroke: #000000; stroke-width: 0.4; stroke-linejoin: miter"/>
     <use xlink:href="#m106c255b84" x="295.383873" y="183.252818" style="fill: #dc143c; stroke: #000000; stroke-width: 0.4; stroke-linejoin: miter"/>
     <use xlink:href="#m106c255b84" x="348.834401" y="163.795443" style="fill: #dc143c; stroke: #000000; stroke-width: 0.4; stroke-linejoin: miter"/>
     <use xlink:href="#m106c255b84" x="402.284929" y="153.771624" style="fill: #dc143c; stroke: #000000; stroke-width: 0.4; stroke-linejoin: miter"/>
     <use xlink:href="#m106c255b84" x="455.735457" y="145.708988" style="fill: #dc143c; stroke: #000000; stroke-width: 0.4; stroke-linejoin: miter"/>
     <use xlink:href="#m106c255b84" x="509.185985" y="139.875289" style="fill: #dc143c; stroke: #000000; stroke-width: 0.4; stroke-linejoin: miter"/>
     <use xlink:href="#m106c255b84" x="562.636513" y="131.976357" style="fill: #dc143c; stroke: #000000; stroke-width: 0.4; stroke-linejoin: miter"/>
    </g>
   </g>
   <g id="line2d_29">
    <path d="M 81.581761 359.823894 
L 86.926814 360.310401 
L 92.271867 308.893556 
L 97.61692 268.369015 
L 102.961973 259.83201 
L 108.307025 240.004717 
L 113.652078 236.882665 
L 118.997131 240.272886 
L 124.342184 228.29267 
L 129.687237 217.71757 
L 135.032289 214.822121 
L 140.377342 216.77873 
L 145.722395 207.090402 
L 151.067448 197.332969 
L 156.412501 199.929735 
L 161.757553 200.458035 
L 167.102606 197.357322 
L 172.447659 185.252694 
L 177.792712 190.892648 
L 183.137765 188.900272 
L 188.482817 183.467109 
L 193.82787 181.397756 
L 199.172923 170.223426 
L 204.517976 172.32736 
L 209.863029 158.171823 
L 215.208081 155.963004 
L 220.553134 164.948286 
L 225.898187 158.758933 
L 231.24324 155.293521 
L 236.588293 165.66947 
L 241.933345 160.124011 
L 247.278398 147.251988 
L 252.623451 155.022959 
L 257.968504 148.823583 
L 263.313557 147.100511 
L 268.658609 154.27455 
L 274.003662 150.505347 
L 279.348715 151.316971 
L 284.693768 143.546689 
L 290.038821 135.167492 
L 295.383873 142.87423 
L 300.728926 136.02468 
L 306.073979 147.076557 
L 311.419032 145.373111 
L 316.764085 145.138333 
L 322.109137 148.252386 
L 327.45419 137.108368 
L 332.799243 135.434935 
L 338.144296 134.961253 
L 343.489349 122.2636 
L 348.834401 138.568797 
L 354.179454 122.393874 
L 359.524507 123.621387 
L 364.86956 121.588676 
L 370.214613 118.089717 
L 375.559665 116.964709 
L 380.904718 123.835137 
L 386.249771 122.386068 
L 391.594824 124.098503 
L 396.939877 126.634228 
L 402.284929 115.29268 
L 407.629982 117.558126 
L 412.975035 123.794733 
L 418.320088 109.479909 
L 423.665141 105.575365 
L 429.010193 118.186637 
L 434.355246 109.176396 
L 439.700299 103.631708 
L 445.045352 117.547002 
L 450.390405 118.441501 
L 455.735457 113.727413 
L 461.08051 100.039373 
L 466.425563 117.500249 
L 471.770616 109.145756 
L 477.115669 98.54502 
L 482.460721 113.561401 
L 487.805774 97.427939 
L 493.150827 108.159048 
L 498.49588 111.839878 
L 503.840933 106.609135 
L 509.185985 95.565466 
L 514.531038 86.756271 
L 519.876091 102.754051 
L 525.221144 105.968035 
L 530.566197 100.158825 
L 535.911249 105.343216 
L 541.256302 84.214759 
L 546.601355 93.115253 
L 551.946408 93.14436 
L 557.291461 80.860809 
L 562.636513 81.286135 
L 567.981566 96.089454 
L 573.326619 83.120975 
L 578.671672 81.438373 
L 584.016725 75.336478 
L 589.361777 99.250909 
L 594.70683 93.67947 
L 600.051883 91.128506 
L 605.396936 77.851572 
L 610.741989 88.634503 
" clip-path="url(#pb1f0b31982)" style="fill: none; stroke-dasharray: 3.7,1.6; stroke-dashoffset: 0; stroke: #ff8c00; stroke-opacity: 0.4"/>
   </g>
   <g id="line2d_30">
    <path d="M 81.581761 348.439137 
L 86.926814 352.591703 
L 92.271867 294.502482 
L 97.61692 243.800274 
L 102.961973 232.223405 
L 108.307025 221.132235 
L 113.652078 215.16823 
L 118.997131 212.822823 
L 124.342184 210.683331 
L 129.687237 183.993964 
L 135.032289 182.500602 
L 140.377342 198.562868 
L 145.722395 169.131001 
L 151.067448 163.408861 
L 156.412501 165.006886 
L 161.757553 171.977267 
L 167.102606 159.21954 
L 172.447659 155.540619 
L 177.792712 157.06185 
L 183.137765 159.099216 
L 188.482817 151.696233 
L 193.82787 140.523746 
L 199.172923 134.339487 
L 204.517976 138.27554 
L 209.863029 123.791015 
L 215.208081 114.081817 
L 220.553134 130.197187 
L 225.898187 126.410737 
L 231.24324 116.140522 
L 236.588293 104.678813 
L 241.933345 109.201266 
L 247.278398 122.992619 
L 252.623451 111.834905 
L 257.968504 123.17977 
L 263.313557 112.54174 
L 268.658609 113.109774 
L 274.003662 93.392285 
L 279.348715 96.871685 
L 284.693768 110.093741 
L 290.038821 117.259775 
L 295.383873 111.371727 
L 300.728926 108.184133 
L 306.073979 114.894129 
L 311.419032 102.212611 
L 316.764085 90.884248 
L 322.109137 94.689672 
L 327.45419 82.35275 
L 332.799243 74.400377 
L 338.144296 104.188619 
L 343.489349 90.271226 
L 348.834401 71.466999 
L 354.179454 92.424625 
L 359.524507 69.894146 
L 364.86956 93.139893 
L 370.214613 96.235147 
L 375.559665 91.058545 
L 380.904718 87.831026 
L 386.249771 90.372431 
L 391.594824 87.917246 
L 396.939877 67.429857 
L 402.284929 86.406956 
L 407.629982 89.563875 
L 412.975035 81.889804 
L 418.320088 92.01061 
L 423.665141 67.041054 
L 429.010193 73.919628 
L 434.355246 85.794054 
L 439.700299 79.858507 
L 445.045352 64.95359 
L 450.390405 54.297811 
L 455.735457 77.075875 
L 461.08051 45.520436 
L 466.425563 71.240904 
L 471.770616 73.954526 
L 477.115669 50.28947 
L 482.460721 69.574442 
L 487.805774 57.141252 
L 493.150827 76.717581 
L 498.49588 56.595208 
L 503.840933 38.16587 
L 509.185985 35.730374 
L 514.531038 43.296611 
L 519.876091 60.919684 
L 525.221144 46.204305 
L 530.566197 50.056903 
L 535.911249 63.001999 
L 541.256302 50.343827 
L 546.601355 67.652998 
L 551.946408 37.367127 
L 557.291461 40.168476 
L 562.636513 28.005752 
L 567.981566 60.312505 
L 573.326619 45.59749 
L 578.671672 31.119675 
L 584.016725 29.591707 
L 589.361777 40.224871 
L 594.70683 42.37108 
L 600.051883 29.435378 
L 605.396936 27.810767 
L 610.741989 35.674488 
" clip-path="url(#pb1f0b31982)" style="fill: none; stroke-dasharray: 3.7,1.6; stroke-dashoffset: 0; stroke: #ff8c00; stroke-opacity: 0.4"/>
   </g>
   <g id="line2d_31">
    <path d="M 81.581761 357.076176 
L 86.926814 357.076176 
L 92.271867 304.791886 
L 97.61692 262.204005 
L 102.961973 247.658574 
L 108.307025 230.116619 
L 113.652078 223.879244 
L 118.997131 222.966477 
L 124.342184 215.803261 
L 129.687237 211.554033 
L 135.032289 205.92871 
L 140.377342 206.882335 
L 145.722395 198.097875 
L 151.067448 190.253147 
L 156.412501 184.76429 
L 161.757553 178.676455 
L 167.102606 177.042136 
L 172.447659 169.538164 
L 177.792712 167.658698 
L 183.137765 165.969631 
L 188.482817 162.57842 
L 193.82787 156.218471 
L 199.172923 154.271181 
L 204.517976 153.221949 
L 209.863029 148.931864 
L 215.208081 146.521244 
L 220.553134 144.65567 
L 225.898187 142.531056 
L 231.24324 140.202153 
L 236.588293 139.166812 
L 241.933345 135.653028 
L 247.278398 134.849761 
L 252.623451 132.752114 
L 257.968504 132.180102 
L 263.313557 131.799306 
L 268.658609 130.927397 
L 274.003662 130.06938 
L 279.348715 128.598494 
L 284.693768 128.898391 
L 290.038821 127.522295 
L 295.383873 126.500846 
L 300.728926 122.782773 
L 306.073979 123.041812 
L 311.419032 122.52455 
L 316.764085 122.782773 
L 322.109137 121.611784 
L 327.45419 120.821591 
L 332.799243 115.48309 
L 338.144296 113.671449 
L 343.489349 115.48309 
L 348.834401 112.432636 
L 354.179454 113.494942 
L 359.524507 110.457562 
L 364.86956 108.931926 
L 370.214613 106.508232 
L 375.559665 107.515789 
L 380.904718 105.132136 
L 386.249771 101.727851 
L 391.594824 104.669624 
L 396.939877 103.035306 
L 402.284929 102.245113 
L 407.629982 100.338681 
L 412.975035 99.943176 
L 418.320088 98.976477 
L 423.665141 96.620607 
L 429.010193 96.851863 
L 434.355246 95.952988 
L 439.700299 95.489659 
L 445.045352 96.457175 
L 450.390405 91.840226 
L 455.735457 89.07496 
L 461.08051 86.610408 
L 466.425563 88.053511 
L 471.770616 87.454534 
L 477.115669 84.825733 
L 482.460721 85.956681 
L 487.805774 86.038397 
L 493.150827 84.226755 
L 498.49588 81.965676 
L 503.840933 82.442897 
L 509.185985 79.58284 
L 514.531038 79.282943 
L 519.876091 80.767721 
L 525.221144 79.296834 
L 530.566197 77.744232 
L 535.911249 77.307869 
L 541.256302 75.497045 
L 546.601355 76.382028 
L 551.946408 73.630653 
L 557.291461 73.0995 
L 562.636513 71.98326 
L 567.981566 69.164062 
L 573.326619 69.477034 
L 578.671672 69.695215 
L 584.016725 66.549153 
L 589.361777 66.480511 
L 594.70683 64.710545 
L 600.051883 64.873976 
L 605.396936 65.064374 
L 610.741989 65.309522 
" clip-path="url(#pb1f0b31982)" style="fill: none; stroke: #ff8c00; stroke-width: 1.8; stroke-linecap: square"/>
    <defs>
     <path id="m13ff999279" d="M 0 -3 
L -0.673542 -0.927051 
L -2.85317 -0.927051 
L -1.089814 0.354102 
L -1.763356 2.427051 
L -0 1.145898 
L 1.763356 2.427051 
L 1.089814 0.354102 
L 2.85317 -0.927051 
L 0.673542 -0.927051 
z
" style="stroke: #000000; stroke-width: 0.4; stroke-linejoin: bevel"/>
    </defs>
    <g clip-path="url(#pb1f0b31982)">
     <use xlink:href="#m13ff999279" x="81.581761" y="357.076176" style="fill: #ff8c00; stroke: #000000; stroke-width: 0.4; stroke-linejoin: bevel"/>
     <use xlink:href="#m13ff999279" x="135.032289" y="205.92871" style="fill: #ff8c00; stroke: #000000; stroke-width: 0.4; stroke-linejoin: bevel"/>
     <use xlink:href="#m13ff999279" x="188.482817" y="162.57842" style="fill: #ff8c00; stroke: #000000; stroke-width: 0.4; stroke-linejoin: bevel"/>
     <use xlink:href="#m13ff999279" x="241.933345" y="135.653028" style="fill: #ff8c00; stroke: #000000; stroke-width: 0.4; stroke-linejoin: bevel"/>
     <use xlink:href="#m13ff999279" x="295.383873" y="126.500846" style="fill: #ff8c00; stroke: #000000; stroke-width: 0.4; stroke-linejoin: bevel"/>
     <use xlink:href="#m13ff999279" x="348.834401" y="112.432636" style="fill: #ff8c00; stroke: #000000; stroke-width: 0.4; stroke-linejoin: bevel"/>
     <use xlink:href="#m13ff999279" x="402.284929" y="102.245113" style="fill: #ff8c00; stroke: #000000; stroke-width: 0.4; stroke-linejoin: bevel"/>
     <use xlink:href="#m13ff999279" x="455.735457" y="89.07496" style="fill: #ff8c00; stroke: #000000; stroke-width: 0.4; stroke-linejoin: bevel"/>
     <use xlink:href="#m13ff999279" x="509.185985" y="79.58284" style="fill: #ff8c00; stroke: #000000; stroke-width: 0.4; stroke-linejoin: bevel"/>
     <use xlink:href="#m13ff999279" x="562.636513" y="71.98326" style="fill: #ff8c00; stroke: #000000; stroke-width: 0.4; stroke-linejoin: bevel"/>
    </g>
   </g>
   <g id="patch_3">
    <path d="M 55.12375 385.036875 
L 55.12375 10.8 
" style="fill: none; stroke: #000000; stroke-width: 0.8; stroke-linejoin: miter; stroke-linecap: square"/>
   </g>
   <g id="patch_4">
    <path d="M 637.2 385.036875 
L 637.2 10.8 
" style="fill: none; stroke: #000000; stroke-width: 0.8; stroke-linejoin: miter; stroke-linecap: square"/>
   </g>
   <g id="patch_5">
    <path d="M 55.12375 385.036875 
L 637.2 385.036875 
" style="fill: none; stroke: #000000; stroke-width: 0.8; stroke-linejoin: miter; stroke-linecap: square"/>
   </g>
   <g id="patch_6">
    <path d="M 55.12375 10.8 
L 637.2 10.8 
" style="fill: none; stroke: #000000; stroke-width: 0.8; stroke-linejoin: miter; stroke-linecap: square"/>
   </g>
   <g id="legend_1">
    <g id="patch_7">
     <path d="M 566.610469 380.536875 
L 630.9 380.536875 
Q 632.7 380.536875 632.7 378.736875 
L 632.7 340.005937 
Q 632.7 338.205938 630.9 338.205938 
L 566.610469 338.205938 
Q 564.810469 338.205938 564.810469 340.005937 
L 564.810469 378.736875 
Q 564.810469 380.536875 566.610469 380.536875 
z
" style="fill: #ffffff; opacity: 0.95; stroke: #000000; stroke-linejoin: miter"/>
    </g>
    <g id="line2d_32">
     <path d="M 568.410469 345.494531 
L 577.410469 345.494531 
L 586.410469 345.494531 
" style="fill: none; stroke: #228b22; stroke-width: 1.8; stroke-linecap: square"/>
     <g>
      <use xlink:href="#me5b35fc89a" x="577.410469" y="345.494531" style="fill: #228b22; stroke: #000000; stroke-width: 0.4"/>
     </g>
    </g>
    <g id="text_14">
     <!-- FedAvg -->
     <g transform="translate(593.610469 348.644531) scale(0.09 -0.09)">
      <defs>
       <path id="DejaVuSans-46" d="M 628 4666 
L 3309 4666 
L 3309 4134 
L 1259 4134 
L 1259 2759 
L 3109 2759 
L 3109 2228 
L 1259 2228 
L 1259 0 
L 628 0 
L 628 4666 
z
" transform="scale(0.015625)"/>
       <path id="DejaVuSans-65" d="M 3597 1894 
L 3597 1613 
L 953 1613 
Q 991 1019 1311 708 
Q 1631 397 2203 397 
Q 2534 397 2845 478 
Q 3156 559 3463 722 
L 3463 178 
Q 3153 47 2828 -22 
Q 2503 -91 2169 -91 
Q 1331 -91 842 396 
Q 353 884 353 1716 
Q 353 2575 817 3079 
Q 1281 3584 2069 3584 
Q 2775 3584 3186 3129 
Q 3597 2675 3597 1894 
z
M 3022 2063 
Q 3016 2534 2758 2815 
Q 2500 3097 2075 3097 
Q 1594 3097 1305 2825 
Q 1016 2553 972 2059 
L 3022 2063 
z
" transform="scale(0.015625)"/>
       <path id="DejaVuSans-64" d="M 2906 2969 
L 2906 4863 
L 3481 4863 
L 3481 0 
L 2906 0 
L 2906 525 
Q 2725 213 2448 61 
Q 2172 -91 1784 -91 
Q 1150 -91 751 415 
Q 353 922 353 1747 
Q 353 2572 751 3078 
Q 1150 3584 1784 3584 
Q 2172 3584 2448 3432 
Q 2725 3281 2906 2969 
z
M 947 1747 
Q 947 1113 1208 752 
Q 1469 391 1925 391 
Q 2381 391 2643 752 
Q 2906 1113 2906 1747 
Q 2906 2381 2643 2742 
Q 2381 3103 1925 3103 
Q 1469 3103 1208 2742 
Q 947 2381 947 1747 
z
" transform="scale(0.015625)"/>
       <path id="DejaVuSans-76" d="M 191 3500 
L 800 3500 
L 1894 563 
L 2988 3500 
L 3597 3500 
L 2284 0 
L 1503 0 
L 191 3500 
z
" transform="scale(0.015625)"/>
       <path id="DejaVuSans-67" d="M 2906 1791 
Q 2906 2416 2648 2759 
Q 2391 3103 1925 3103 
Q 1463 3103 1205 2759 
Q 947 2416 947 1791 
Q 947 1169 1205 825 
Q 1463 481 1925 481 
Q 2391 481 2648 825 
Q 2906 1169 2906 1791 
z
M 3481 434 
Q 3481 -459 3084 -895 
Q 2688 -1331 1869 -1331 
Q 1566 -1331 1297 -1286 
Q 1028 -1241 775 -1147 
L 775 -588 
Q 1028 -725 1275 -790 
Q 1522 -856 1778 -856 
Q 2344 -856 2625 -561 
Q 2906 -266 2906 331 
L 2906 616 
Q 2728 306 2450 153 
Q 2172 0 1784 0 
Q 1141 0 747 490 
Q 353 981 353 1791 
Q 353 2603 747 3093 
Q 1141 3584 1784 3584 
Q 2172 3584 2450 3431 
Q 2728 3278 2906 2969 
L 2906 3500 
L 3481 3500 
L 3481 434 
z
" transform="scale(0.015625)"/>
      </defs>
      <use xlink:href="#DejaVuSans-46"/>
      <use xlink:href="#DejaVuSans-65" transform="translate(52.019531 0)"/>
      <use xlink:href="#DejaVuSans-64" transform="translate(113.542969 0)"/>
      <use xlink:href="#DejaVuSans-41" transform="translate(177.019531 0)"/>
      <use xlink:href="#DejaVuSans-76" transform="translate(239.552734 0)"/>
      <use xlink:href="#DejaVuSans-67" transform="translate(298.732422 0)"/>
     </g>
    </g>
    <g id="line2d_33">
     <path d="M 568.410469 358.704844 
L 577.410469 358.704844 
L 586.410469 358.704844 
" style="fill: none; stroke: #dc143c; stroke-width: 1.8; stroke-linecap: square"/>
     <g>
      <use xlink:href="#m106c255b84" x="577.410469" y="358.704844" style="fill: #dc143c; stroke: #000000; stroke-width: 0.4; stroke-linejoin: miter"/>
     </g>
    </g>
    <g id="text_15">
     <!-- FedProx -->
     <g transform="translate(593.610469 361.854844) scale(0.09 -0.09)">
      <defs>
       <path id="DejaVuSans-50" d="M 1259 4147 
L 1259 2394 
L 2053 2394 
Q 2494 2394 2734 2622 
Q 2975 2850 2975 3272 
Q 2975 3691 2734 3919 
Q 2494 4147 2053 4147 
L 1259 4147 
z
M 628 4666 
L 2053 4666 
Q 2838 4666 3239 4311 
Q 3641 3956 3641 3272 
Q 3641 2581 3239 2228 
Q 2838 1875 2053 1875 
L 1259 1875 
L 1259 0 
L 628 0 
L 628 4666 
z
" transform="scale(0.015625)"/>
       <path id="DejaVuSans-6f" d="M 1959 3097 
Q 1497 3097 1228 2736 
Q 959 2375 959 1747 
Q 959 1119 1226 758 
Q 1494 397 1959 397 
Q 2419 397 2687 759 
Q 2956 1122 2956 1747 
Q 2956 2369 2687 2733 
Q 2419 3097 1959 3097 
z
M 1959 3584 
Q 2709 3584 3137 3096 
Q 3566 2609 3566 1747 
Q 3566 888 3137 398 
Q 2709 -91 1959 -91 
Q 1206 -91 779 398 
Q 353 888 353 1747 
Q 353 2609 779 3096 
Q 1206 3584 1959 3584 
z
" transform="scale(0.015625)"/>
       <path id="DejaVuSans-78" d="M 3513 3500 
L 2247 1797 
L 3578 0 
L 2900 0 
L 1881 1375 
L 863 0 
L 184 0 
L 1544 1831 
L 300 3500 
L 978 3500 
L 1906 2253 
L 2834 3500 
L 3513 3500 
z
" transform="scale(0.015625)"/>
      </defs>
      <use xlink:href="#DejaVuSans-46"/>
      <use xlink:href="#DejaVuSans-65" transform="translate(52.019531 0)"/>
      <use xlink:href="#DejaVuSans-64" transform="translate(113.542969 0)"/>
      <use xlink:href="#DejaVuSans-50" transform="translate(177.019531 0)"/>
      <use xlink:href="#DejaVuSans-72" transform="translate(235.572266 0)"/>
      <use xlink:href="#DejaVuSans-6f" transform="translate(274.435547 0)"/>
      <use xlink:href="#DejaVuSans-78" transform="translate(332.492188 0)"/>
     </g>
    </g>
    <g id="line2d_34">
     <path d="M 568.410469 371.915156 
L 577.410469 371.915156 
L 586.410469 371.915156 
" style="fill: none; stroke: #ff8c00; stroke-width: 1.8; stroke-linecap: square"/>
     <g>
      <use xlink:href="#m13ff999279" x="577.410469" y="371.915156" style="fill: #ff8c00; stroke: #000000; stroke-width: 0.4; stroke-linejoin: bevel"/>
     </g>
    </g>
    <g id="text_16">
     <!-- PP-EFLS -->
     <g transform="translate(593.610469 375.065156) scale(0.09 -0.09)">
      <defs>
       <path id="DejaVuSans-2d" d="M 313 2009 
L 1997 2009 
L 1997 1497 
L 313 1497 
L 313 2009 
z
" transform="scale(0.015625)"/>
       <path id="DejaVuSans-45" d="M 628 4666 
L 3578 4666 
L 3578 4134 
L 1259 4134 
L 1259 2753 
L 3481 2753 
L 3481 2222 
L 1259 2222 
L 1259 531 
L 3634 531 
L 3634 0 
L 628 0 
L 628 4666 
z
" transform="scale(0.015625)"/>
       <path id="DejaVuSans-4c" d="M 628 4666 
L 1259 4666 
L 1259 531 
L 3531 531 
L 3531 0 
L 628 0 
L 628 4666 
z
" transform="scale(0.015625)"/>
       <path id="DejaVuSans-53" d="M 3425 4513 
L 3425 3897 
Q 3066 4069 2747 4153 
Q 2428 4238 2131 4238 
Q 1616 4238 1336 4038 
Q 1056 3838 1056 3469 
Q 1056 3159 1242 3001 
Q 1428 2844 1947 2747 
L 2328 2669 
Q 3034 2534 3370 2195 
Q 3706 1856 3706 1288 
Q 3706 609 3251 259 
Q 2797 -91 1919 -91 
Q 1588 -91 1214 -16 
Q 841 59 441 206 
L 441 856 
Q 825 641 1194 531 
Q 1563 422 1919 422 
Q 2459 422 2753 634 
Q 3047 847 3047 1241 
Q 3047 1584 2836 1778 
Q 2625 1972 2144 2069 
L 1759 2144 
Q 1053 2284 737 2584 
Q 422 2884 422 3419 
Q 422 4038 858 4394 
Q 1294 4750 2059 4750 
Q 2388 4750 2728 4690 
Q 3069 4631 3425 4513 
z
" transform="scale(0.015625)"/>
      </defs>
      <use xlink:href="#DejaVuSans-50"/>
      <use xlink:href="#DejaVuSans-50" transform="translate(60.302734 0)"/>
      <use xlink:href="#DejaVuSans-2d" transform="translate(118.355469 0)"/>
      <use xlink:href="#DejaVuSans-45" transform="translate(154.439453 0)"/>
      <use xlink:href="#DejaVuSans-46" transform="translate(217.623047 0)"/>
      <use xlink:href="#DejaVuSans-4c" transform="translate(275.142578 0)"/>
      <use xlink:href="#DejaVuSans-53" transform="translate(330.855469 0)"/>
     </g>
    </g>
   </g>
  </g>
 </g>
 <defs>
  <clipPath id="pb1f0b31982">
   <rect x="55.12375" y="10.8" width="582.07625" height="374.236875"/>
  </clipPath>
 </defs>
</svg>
